<?xml version="1.0" encoding="UTF-8"?>
<svg version="1.1" xmlns="http://www.w3.org/2000/svg" width="785" height="785">
<path d="M0 0 C259.05 0 518.1 0 785 0 C785 259.05 785 518.1 785 785 C525.95 785 266.9 785 0 785 C0 525.95 0 266.9 0 0 Z " fill="#5EAEFD" transform="translate(0,0)"/>
<path d="M0 0 C259.05 0 518.1 0 785 0 C785 146.52 785 293.04 785 444 C784.67 444 784.34 444 784 444 C783.91024902 443.35264893 783.82049805 442.70529785 783.72802734 442.03833008 C778.16576357 402.7596044 764.72514406 365.70812917 737.109375 336.3828125 C736 335 736 335 736 333 C735.40034424 332.72921631 734.80068848 332.45843262 734.18286133 332.17944336 C732.01973116 331.01066114 730.73534858 329.91700504 729.07421875 328.12890625 C728.26235107 327.27570801 728.26235107 327.27570801 727.43408203 326.40527344 C726.85770996 325.7971582 726.28133789 325.18904297 725.6875 324.5625 C718.7107969 317.41509619 711.27510191 311.56202335 703 306 C702.38995117 305.58298828 701.77990234 305.16597656 701.15136719 304.73632812 C683.94259674 293.0696736 665.05689584 284.40876582 645 279 C643.40478516 278.54560547 643.40478516 278.54560547 641.77734375 278.08203125 C630.76150789 275.22284856 619.28468412 274.28727354 608 273 C607.86537354 272.37883301 607.73074707 271.75766602 607.59204102 271.11767578 C599.79181581 235.67505848 587.11287236 200.50061996 563.09375 172.54296875 C561 170 561 170 561 168 C560.34 168 559.68 168 559 168 C557.57666016 166.56201172 557.57666016 166.56201172 555.9140625 164.5546875 C545.5767926 152.41173428 534.089309 141.13507878 521 132 C520.45939941 131.60973633 519.91879883 131.21947266 519.36181641 130.81738281 C481.36838278 103.419859 436.06506052 90.78338203 389.625 90.75 C388.77962677 90.74932526 387.93425354 90.74865051 387.06326294 90.74795532 C374.1449606 90.76431399 361.67395391 91.30704752 349 94 C348.15308594 94.17160645 347.30617188 94.34321289 346.43359375 94.52001953 C292.50677087 105.62902447 242.7369786 138.01075043 212 184 C204.83400591 194.9308001 198.5949721 206.19550509 193 218 C192.52949219 218.96164063 192.05898437 219.92328125 191.57421875 220.9140625 C181.63764163 241.77164544 177.09151498 265.24753449 174 288 C173.40687012 288.01981934 172.81374023 288.03963867 172.20263672 288.06005859 C135.70541386 289.33855624 99.69675727 296.86142931 71 321 C70.43732422 321.4655127 69.87464844 321.93102539 69.29492188 322.41064453 C33.19223928 352.31122119 10.30044923 393.84038133 5.6875 440.8125 C5.40515308 444.20627874 5.18283798 447.59949068 5 451 C4.96003906 451.70866211 4.92007812 452.41732422 4.87890625 453.14746094 C3.52693414 481.28200063 9.33078997 510.83487641 22 536 C22.36464355 536.74797852 22.72928711 537.49595703 23.10498047 538.26660156 C30.17669208 552.72811927 38.51714593 565.66433189 49.63671875 577.36328125 C51 579 51 579 51 581 C51.54527344 581.21011719 52.09054688 581.42023437 52.65234375 581.63671875 C55.22399471 583.13007347 56.99716596 584.96746774 59.00756836 587.13793945 C67.25930448 596.02452417 76.78612006 602.5552359 87 609 C87.94576904 609.60134766 87.94576904 609.60134766 88.91064453 610.21484375 C106.18605863 621.05356295 125.17427851 627.45839318 145.125 631.1875 C146.01936768 631.35475586 146.91373535 631.52201172 147.83520508 631.69433594 C160.85664721 634.00196339 173.77950127 634.14597429 186.95735168 634.13371277 C188.87092578 634.13558338 190.7844995 634.13788508 192.69807261 634.14057809 C197.93233584 634.14667137 203.16658303 634.14656542 208.40084898 634.14538372 C214.05537702 634.14517909 219.7099 634.15070435 225.36442566 634.15544128 C236.43299989 634.16373448 247.5015688 634.16649551 258.57014588 634.16705366 C267.56906478 634.16752939 276.56798192 634.16958696 285.56690025 634.17275429 C306.94548588 634.18012542 328.32406979 634.18627952 349.70265675 634.18575573 C350.38563344 634.18574015 351.06861013 634.18572457 351.77228309 634.18570852 C355.23355259 634.18562542 358.6948221 634.18552638 362.15609161 634.18542381 C363.18714356 634.1853939 363.18714356 634.1853939 364.23902484 634.18536337 C365.62904836 634.18532294 367.01907187 634.18528114 368.40909538 634.18523798 C390.03453711 634.18462526 411.65996315 634.19213298 433.28540039 634.20581055 C457.60541116 634.22118619 481.925409 634.22976324 506.2454254 634.22884732 C519.11359888 634.22851561 531.98175467 634.23125178 544.84992409 634.24202538 C555.80476419 634.25113856 566.75957858 634.25329883 577.71442083 634.24651595 C583.30004048 634.2432551 588.88561081 634.24317843 594.47122574 634.2518692 C599.59168218 634.2597541 604.71205037 634.25828248 609.83250471 634.24958507 C611.67762316 634.24805448 613.52274826 634.24984947 615.36785886 634.25544515 C629.54919568 634.29557956 643.14278427 633.32925575 656.9375 629.75 C657.77958008 629.53384033 658.62166016 629.31768066 659.48925781 629.0949707 C686.61044313 621.90995703 710.54300266 608.13108085 731 589 C731.8146875 588.23945312 732.629375 587.47890625 733.46875 586.6953125 C764.2777554 556.95877247 779.65549398 515.95878182 784 474 C784.33 474 784.66 474 785 474 C785 576.63 785 679.26 785 785 C525.95 785 266.9 785 0 785 C0 525.95 0 266.9 0 0 Z " fill="#FCFCFD" transform="translate(0,0)"/>
<path d="M0 0 C0.80091064 0.00087616 1.60182129 0.00175232 2.42700195 0.00265503 C14.54467739 0.046417 25.8799378 0.67138406 37.5 4.375 C38.30743652 4.62169434 39.11487305 4.86838867 39.94677734 5.12255859 C61.22131658 11.71997425 79.5328867 21.37290613 95.74609375 36.796875 C97.62704733 38.55776771 99.57355411 40.25050659 101.5703125 41.87890625 C124.4581946 61.3793818 138.47019114 95.32581657 141.32568359 124.78637695 C142.67266512 144.78924127 142.05046399 164.01666249 136.5 183.375 C136.25362793 184.24511719 136.00725586 185.11523438 135.75341797 186.01171875 C131.81690713 199.4329111 125.96244582 216.64659452 115.5 226.375 C116.89088574 229.51338897 118.50766245 231.62551581 120.94052124 234.0358429 C121.65269302 234.74642853 122.36486481 235.45701416 123.09861755 236.18913269 C124.27062462 237.34328423 124.27062462 237.34328423 125.46630859 238.52075195 C126.70068916 239.74834229 126.70068916 239.74834229 127.96000671 241.00073242 C129.74811708 242.77788153 131.53849436 244.55275196 133.33085251 246.32561684 C136.16838225 249.1330142 138.99941912 251.94685846 141.82827759 254.76298523 C148.85743554 261.75809125 155.89581254 268.74390161 162.93914795 275.72473145 C168.41083995 281.14788764 173.87925886 286.57424636 179.3371855 292.01126069 C181.68597222 294.350443 184.03859506 296.68555911 186.39655685 299.01549721 C189.02952209 301.61722572 191.65311501 304.22807908 194.27490234 306.84106445 C195.05219193 307.60442612 195.82948151 308.36778778 196.63032532 309.15428162 C203.37780939 315.91336232 207.12410358 321.54860551 207.75 331.25 C207.58138562 339.4354616 203.14189423 344.85765089 197.5 350.375 C191.6090514 354.62196295 185.59394802 355.01027893 178.5 354.375 C175.66675616 353.59153064 173.19779527 352.57402012 170.5 351.375 C170.5 350.715 170.5 350.055 170.5 349.375 C169.94592468 349.3082457 169.39184937 349.24149139 168.82098389 349.17271423 C165.5317646 348.0422208 163.81791065 346.06694659 161.36425781 343.61157227 C160.86624161 343.11720673 160.3682254 342.62284119 159.8551178 342.11349487 C158.21363559 340.48010837 156.58324413 338.83612731 154.953125 337.19140625 C153.81592041 336.05368306 152.67819746 334.9164778 151.53997803 333.7797699 C149.15812486 331.39782706 146.78152238 329.01080294 144.40869141 326.61987305 C141.36153202 323.54998812 138.30338231 320.49134023 135.24147415 317.43617344 C132.89229205 315.09032607 130.54811306 312.73953225 128.20552826 310.38709831 C127.07929064 309.25700274 125.95169079 308.12826308 124.82273102 307.00088692 C123.2495462 305.42807136 121.68299596 303.84894263 120.11816406 302.26782227 C119.22421936 301.36927017 118.33027466 300.47071808 117.40924072 299.54493713 C115.5 297.375 115.5 297.375 115.5 295.375 C114.51 295.045 113.52 294.715 112.5 294.375 C111.29982577 292.98532458 110.10016995 291.59290674 108.9765625 290.140625 C105.10384948 285.50976181 100.52572288 281.54550517 96.0625 277.5 C92.46132594 274.23073138 89.05935163 271.03717909 86.0625 267.1875 C83.72964915 264.24161792 83.72964915 264.24161792 80.625 263.125 C76.7825173 263.43239862 74.93641928 264.71389589 71.80078125 266.8515625 C44.52199344 284.91391776 8.09712809 288.5270601 -23.5 283.375 C-25.20349609 283.10042969 -25.20349609 283.10042969 -26.94140625 282.8203125 C-51.38090526 278.23259658 -73.62368993 266.30283652 -92.5 250.375 C-93.31082031 249.69953125 -94.12164062 249.0240625 -94.95703125 248.328125 C-121.7167858 225.23466753 -138.23128977 191.08086924 -141.33447266 155.98681641 C-142.16915078 142.81662973 -142.33474304 129.30851514 -139.5 116.375 C-139.29375 115.35148437 -139.0875 114.32796875 -138.875 113.2734375 C-138.1632138 109.94907239 -137.35200301 106.66614436 -136.5 103.375 C-136.20867187 102.19808594 -135.91734375 101.02117187 -135.6171875 99.80859375 C-130.90052427 82.77619875 -122.42812917 66.43176477 -110.5 53.375 C-108.35600237 50.65704791 -106.24060026 47.91885045 -104.12890625 45.17578125 C-103.59136719 44.58152344 -103.05382812 43.98726563 -102.5 43.375 C-101.84 43.375 -101.18 43.375 -100.5 43.375 C-100.17 42.385 -99.84 41.395 -99.5 40.375 C-97.06274433 37.79397363 -94.24680641 35.61780524 -91.5 33.375 C-90.53320312 32.58351563 -89.56640625 31.79203125 -88.5703125 30.9765625 C-81.01486747 24.91597591 -73.09554876 19.84521938 -64.5 15.375 C-63.85047363 15.03194824 -63.20094727 14.68889648 -62.53173828 14.33544922 C-51.57982489 8.62083416 -40.56631397 4.96350805 -28.5 2.375 C-27.70754883 2.18953613 -26.91509766 2.00407227 -26.09863281 1.81298828 C-17.45545407 -0.02413788 -8.79310524 -0.02343409 0 0 Z " fill="#FCFDFD" transform="translate(471.5,264.625)"/>
<path d="M0 0 C18.13604493 15.6073621 29.3473884 36.39999676 33.359375 59.953125 C33.6996875 61.8403125 33.6996875 61.8403125 34.046875 63.765625 C34.18040257 65.15895618 34.27911823 66.55571302 34.359375 67.953125 C34.42382812 69.066875 34.48828125 70.180625 34.5546875 71.328125 C35.3648862 98.55080118 24.9509823 123.94694366 7.09375 144.1875 C4.81817513 146.48908144 3.34129915 147.84555317 0.359375 148.953125 C0.359375 149.613125 0.359375 150.273125 0.359375 150.953125 C-20.35756376 167.85016309 -47.01854859 176.21307296 -73.640625 173.953125 C-99.98904743 170.36015831 -123.50205368 157.23741568 -140.640625 136.953125 C-157.41593105 114.70440421 -164.94920397 87.37053303 -161.14453125 59.66796875 C-157.33056187 39.17596375 -148.66514726 22.11094199 -134.640625 6.953125 C-133.92261719 6.14230469 -133.20460938 5.33148438 -132.46484375 4.49609375 C-97.92774099 -32.642674 -37.53673253 -31.0984103 0 0 Z " fill="#5EAEFD" transform="translate(535.640625,332.046875)"/>
<path d="M0 0 C-1.32 0.99 -2.64 1.98 -4 3 C-4.66 2.67 -5.32 2.34 -6 2 C-6.33 2.66 -6.66 3.32 -7 4 C-162.76 3.67 -318.52 3.34 -479 3 C-479 2.67 -479 2.34 -479 2 C-478.02122784 1.99826375 -477.04245568 1.9965275 -476.03402376 1.99473864 C-418.04798776 1.89178999 -360.06196305 1.78365056 -302.07594922 1.66888306 C-295.1163881 1.65510984 -288.15682689 1.64138498 -281.19726562 1.62768555 C-280.15842422 1.62563942 -280.15842422 1.62563942 -279.09859612 1.62355196 C-256.64967926 1.57935874 -234.20075794 1.53835939 -211.75183211 1.49901587 C-188.02921315 1.45742276 -164.30660391 1.41219131 -140.58399916 1.36312145 C-126.37168564 1.33384117 -112.15937282 1.30747699 -97.94704717 1.28482103 C-88.20643273 1.26901567 -78.46582968 1.24960226 -68.72522789 1.22733159 C-63.10209751 1.21458217 -57.47897587 1.20344273 -51.85583496 1.19658089 C-46.70875783 1.19026491 -41.5617109 1.17942263 -36.41465038 1.1649667 C-34.55180496 1.16053618 -32.68895468 1.15777268 -30.82610422 1.15683801 C-28.29431557 1.15532457 -25.76261381 1.14774357 -23.23084259 1.1386652 C-22.14574233 1.1401992 -22.14574233 1.1401992 -21.03872085 1.14176419 C-13.96319894 1.10363865 -7.07882731 -0.14747557 0 0 Z " fill="#D8FDFF" transform="translate(647,633)"/>
<path d="M0 0 C0.99 0.33 1.98 0.66 3 1 C3.12375 1.94875 3.2475 2.8975 3.375 3.875 C3.71687177 7.08667191 3.71687177 7.08667191 6 9 C6.26991906 11.68839385 6.08737357 14.29141936 6 17 C6.66 17 7.32 17 8 17 C8.48157839 20.31215393 8.95981111 23.62478306 9.4375 26.9375 C9.57220703 27.86369141 9.70691406 28.78988281 9.84570312 29.74414062 C13.63578684 56.0898445 12.66301346 82.72457554 2.81640625 107.78515625 C1.82097384 110.48568342 1.30896399 113.14208313 1 116 C0.34 116 -0.32 116 -1 116 C-1.99 118.97 -2.98 121.94 -4 125 C-4.66 125 -5.32 125 -6 125 C-4.9531565 121.69444983 -3.80656103 118.47356063 -2.44921875 115.28515625 C2.65807233 103.14556278 5.51190369 90.9051895 8 78 C8.18030762 77.21488037 8.36061523 76.42976074 8.54638672 75.62084961 C9.55363315 69.80126379 9.24507832 63.77176037 9.25 57.875 C9.25067474 57.15480682 9.25134949 56.43461365 9.25204468 55.69259644 C9.22745294 39.17821251 7.09088538 24.27362271 2.0859375 8.5390625 C1.21046912 5.68591735 0.50998557 2.93525029 0 0 Z " fill="#65A2D6" transform="translate(603,351)"/>
<path d="M0 0 C1.49608773 0.01005392 2.99218203 0.01917549 4.48828125 0.02734375 C8.11732626 0.04915692 11.74611985 0.08355259 15.375 0.125 C15.375 0.455 15.375 0.785 15.375 1.125 C14.80056152 1.15005615 14.22612305 1.1751123 13.63427734 1.20092773 C11.00600279 1.31769875 8.37801605 1.44005419 5.75 1.5625 C4.84636719 1.60181641 3.94273437 1.64113281 3.01171875 1.68164062 C-1.61721822 1.90126172 -6.05596213 2.31133572 -10.625 3.125 C-11.759375 3.08375 -12.89375 3.0425 -14.0625 3 C-17.58861007 3.12372316 -19.41092334 3.9402848 -22.515625 5.45703125 C-27.02879671 6.88620229 -31.94470225 6.33250089 -36.625 6.125 C-37.285 7.445 -37.945 8.765 -38.625 10.125 C-39.285 10.125 -39.945 10.125 -40.625 10.125 C-41.285 11.445 -41.945 12.765 -42.625 14.125 C-43.1921875 13.95226562 -43.759375 13.77953125 -44.34375 13.6015625 C-46.80226394 13.08796883 -48.64150451 13.1853105 -51.125 13.5 C-51.8778125 13.59023438 -52.630625 13.68046875 -53.40625 13.7734375 C-55.52272937 14.10879515 -57.5563137 14.57021595 -59.625 15.125 C-56.92724997 11.71997468 -53.26659608 10.6065366 -49.3125 9.1875 C-48.60335449 8.92807617 -47.89420898 8.66865234 -47.16357422 8.40136719 C-40.41275167 5.97305705 -33.59251177 3.84730628 -26.625 2.125 C-25.94743652 1.94404785 -25.26987305 1.7630957 -24.57177734 1.57666016 C-16.44518546 -0.35970758 -8.29224982 -0.09759921 0 0 Z " fill="#62A3DB" transform="translate(158.625,288.875)"/>
<path d="M0 0 C12.89321827 11.89717565 17.28420231 35.14167062 18.21484375 51.859375 C18.52998389 61.5623741 17.10747367 70.56654642 15 80 C14.67 80 14.34 80 14 80 C14.04600342 78.97229492 14.09200684 77.94458984 14.1394043 76.88574219 C14.30789149 73.01719175 14.45319174 69.14803831 14.59204102 65.27832031 C14.65487841 63.61401328 14.72373031 61.94992067 14.79907227 60.28613281 C15.20125677 51.31390944 15.41644592 43.1629123 12.75268555 34.46630859 C11.98244808 31.94248802 11.52570991 29.48054505 11.125 26.875 C10.24580044 22.24802603 8.45495643 18.44892877 6.21875 14.32421875 C4.96569036 11.93456975 3.99707397 9.50504533 3 7 C2.46375 6.113125 1.9275 5.22625 1.375 4.3125 C0 2 0 2 0 0 Z " fill="#69A6DD" transform="translate(552,352)"/>
<path d="M0 0 C0.33 0 0.66 0 1 0 C1 2.31 1 4.62 1 7 C0.34 7 -0.32 7 -1 7 C-3.02412125 11.0482425 -4.27679588 15.45519031 -4 20 C-2.00179441 22.83255116 -2.00179441 22.83255116 1 25 C3.03357096 26.6344589 5.02138698 28.29747251 7 30 C7 30.66 7 31.32 7 32 C7.61875 32.0825 8.2375 32.165 8.875 32.25 C11 33 11 33 12.125 35 C12.41375 35.66 12.7025 36.32 13 37 C13.66 37.33 14.32 37.66 15 38 C15 38.66 15 39.32 15 40 C16.485 40.495 16.485 40.495 18 41 C19.4296875 42.453125 19.4296875 42.453125 20.875 44.25 C23.43708895 47.35653285 26.11149088 50.19644704 29 53 C28.505 53.99 28.505 53.99 28 55 C15.46 42.46 2.92 29.92 -10 17 C-8.14633215 13.29266431 -6.10372886 9.77641907 -3.9375 6.25 C-3.57333984 5.64800781 -3.20917969 5.04601562 -2.83398438 4.42578125 C-1.91804779 2.93251679 -0.96242579 1.4637333 0 0 Z " fill="#67A5D7" transform="translate(596,476)"/>
<path d="M0 0 C7.21004527 5.63151465 13.33685378 11.68638118 15 21 C15.69594247 27.37736371 14.6128814 32.47727597 10.6875 37.76953125 C9.49759326 39.21296926 8.25327986 40.61123042 7 42 C6.67 40.68 6.34 39.36 6 38 C6.99 37.34 7.98 36.68 9 36 C9.66179847 34.01954441 9.66179847 34.01954441 10 32 C10.33 31.34 10.66 30.68 11 30 C12.04967191 21.37406631 12.04967191 21.37406631 9.4375 13.3671875 C7.55337847 11.24472096 7.55337847 11.24472096 5.53125 9.453125 C4.77328125 8.73382812 4.77328125 8.73382812 4 8 C4 7.34 4 6.68 4 6 C3.34 6 2.68 6 2 6 C1.34 4.02 0.68 2.04 0 0 Z " fill="#DFF6FE" transform="translate(664,571)"/>
<path d="M0 0 C0.79725494 -0.00045319 1.59450989 -0.00090637 2.41592407 -0.00137329 C18.08827799 0.02481457 31.65126905 2.29702932 46.5 7.375 C42.92447533 8.56684156 41.80180762 8.05777877 38.25 7 C31.93536722 5.29960929 25.95467414 4.86243294 19.45703125 4.5859375 C16.5 4.375 16.5 4.375 15.5 3.375 C9.2746678 2.3589113 3.17273791 2.22316305 -3.125 2.25 C-4.04023438 2.24613281 -4.95546875 2.24226563 -5.8984375 2.23828125 C-10.56370389 2.24502296 -14.90134422 2.51613341 -19.5 3.375 C-21.12394748 3.4370775 -22.75005297 3.46212041 -24.375 3.4375 C-25.15617187 3.42847656 -25.93734375 3.41945313 -26.7421875 3.41015625 C-27.32226562 3.39855469 -27.90234375 3.38695312 -28.5 3.375 C-28.5 3.045 -28.5 2.715 -28.5 2.375 C-19.03712178 0.13311309 -9.66333479 -0.02130162 0 0 Z " fill="#DAF7FE" transform="translate(471.5,264.625)"/>
<path d="M0 0 C0.99 0.33 1.98 0.66 3 1 C2.05898438 1.39832031 1.11796875 1.79664063 0.1484375 2.20703125 C-1.109417 2.74208876 -2.36722714 3.27725058 -3.625 3.8125 C-4.24246094 4.07353516 -4.85992188 4.33457031 -5.49609375 4.60351562 C-8.35886923 5.82396201 -11.13935491 7.07573636 -13.875 8.5625 C-17.94240539 10.43350648 -22.00497985 11.29188981 -26.375 12.1875 C-27.20644531 12.36474609 -28.03789062 12.54199219 -28.89453125 12.72460938 C-30.92814774 13.15704507 -32.96387336 13.57954198 -35 14 C-35 14.66 -35 15.32 -35 16 C-35.66 16 -36.32 16 -37 16 C-37 15.34 -37 14.68 -37 14 C-38.03125 14.16371094 -39.0625 14.32742188 -40.125 14.49609375 C-46.39649677 15.28003085 -52.69083019 15.10580476 -59 15.0625 C-60.25167969 15.05798828 -61.50335938 15.05347656 -62.79296875 15.04882812 C-65.86202941 15.03711415 -68.93098907 15.02071073 -72 15 C-72 14.67 -72 14.34 -72 14 C-70.74848145 13.94054199 -70.74848145 13.94054199 -69.47167969 13.87988281 C-45.44734807 12.68362311 -21.92705309 10.96352655 0 0 Z " fill="#60A0D5" transform="translate(533,536)"/>
<path d="M0 0 C0.28875 0.639375 0.5775 1.27875 0.875 1.9375 C1.82823451 4.15206079 1.82823451 4.15206079 4 5 C2.93910567 8.50095128 1.4815918 10.6534076 -1 13.25 C-4.48888201 17.10478915 -5.33396505 20.93583769 -6 26 C-7.66666667 26 -9.33333333 26 -11 26 C-9.30863533 16.52165937 -4.72650316 8.28713554 0 0 Z " fill="#60AFF4" transform="translate(27,371)"/>
<path d="M0 0 C0.66 0.33 1.32 0.66 2 1 C1.40832031 2.02738281 0.81664063 3.05476563 0.20703125 4.11328125 C-7.71927561 17.96669305 -13.61435473 31.99162834 -19 47 C-21.06557223 43.28614287 -21.02174172 41.43479468 -20.125 37.25 C-19.92132813 36.26515625 -19.71765625 35.2803125 -19.5078125 34.265625 C-19.25644531 33.14414062 -19.25644531 33.14414062 -19 32 C-18.01 31.67 -17.02 31.34 -16 31 C-15.26676204 28.98491642 -15.26676204 28.98491642 -15 27 C-14.34 27 -13.68 27 -13 27 C-12.67 24.69 -12.34 22.38 -12 20 C-11.34 20 -10.68 20 -10 20 C-9.7834375 19.1028125 -9.7834375 19.1028125 -9.5625 18.1875 C-9.1127561 16.43849596 -8.57107659 14.71322977 -8 13 C-7.34 13 -6.68 13 -6 13 C-5.938125 12.34 -5.87625 11.68 -5.8125 11 C-4.67863503 6.81342164 -2.40368936 3.57449008 0 0 Z " fill="#D5F3FD" transform="translate(31,361)"/>
<path d="M0 0 C7.31533838 8.73956355 9.71360709 22.06413932 12.375 32.875 C12.63772705 33.92002686 12.9004541 34.96505371 13.17114258 36.04174805 C14.69132325 42.46998432 15.34588708 48.39886406 15 55 C14.67 54.34 14.34 53.68 14 53 C13.34 53 12.68 53 12 53 C11.93941406 52.38253906 11.87882813 51.76507813 11.81640625 51.12890625 C11.73261719 50.28199219 11.64882813 49.43507813 11.5625 48.5625 C11.48128906 47.73878906 11.40007813 46.91507812 11.31640625 46.06640625 C11.21199219 45.05449219 11.10757813 44.04257812 11 43 C10.95391602 42.36320312 10.90783203 41.72640625 10.86035156 41.0703125 C10.29158337 34.41361806 8.5435403 28.25692126 6.625 21.875 C6.32078125 20.82957031 6.0165625 19.78414063 5.703125 18.70703125 C4.41581775 14.35549263 3.12613572 10.09265693 1.2734375 5.9453125 C0 3 0 3 0 0 Z " fill="#639FD6" transform="translate(768,384)"/>
<path d="M0 0 C8.32059507 0.73309208 15.25411441 3.64463035 22.71630859 7.16796875 C26.49331159 8.9426754 29.83860249 10.36455383 34 11 C35.34090759 11.65129797 36.67592331 12.31513275 38 13 C38.66 13 39.32 13 40 13 C40 13.66 40 14.32 40 15 C30.45980276 14.1166484 22.03066661 11.11560009 13.1875 7.5625 C12.45797119 7.2742334 11.72844238 6.9859668 10.97680664 6.68896484 C6.76356269 4.95595369 3.43905744 3.07420655 0 0 Z " fill="#6CA8DA" transform="translate(96,614)"/>
<path d="M0 0 C-3.85573328 1.28524443 -5.20677304 0.33640381 -9 -1 C-23.84068533 -4.3898396 -38.83403933 -4.69438445 -54 -5 C-54 -5.33 -54 -5.66 -54 -6 C-36.34873556 -9.90294935 -16.48428877 -6.8800951 0 0 Z " fill="#629FD8" transform="translate(509,316)"/>
<path d="M0 0 C1.02738281 0.33773438 2.05476563 0.67546875 3.11328125 1.0234375 C21.36856466 6.94412973 37.90123255 8.09711956 57 6 C53.39042389 9.2910841 50.87362847 10.54663921 46 11 C46 10.34 46 9.68 46 9 C44.70707031 9.10699219 43.41414063 9.21398437 42.08203125 9.32421875 C31.83511065 10.07059817 22.90696733 10.1953458 13 7 C12.12601562 6.73574219 11.25203125 6.47148437 10.3515625 6.19921875 C6.72590517 5.05520066 3.37805003 3.75297474 0 2 C0 1.34 0 0.68 0 0 Z " fill="#DEF8FE" transform="translate(435,498)"/>
<path d="M0 0 C0.33 0 0.66 0 1 0 C0.88525534 2.54250021 0.7585303 5.08347338 0.625 7.625 C0.5940625 8.33785156 0.563125 9.05070312 0.53125 9.78515625 C0.49257813 10.48769531 0.45390625 11.19023437 0.4140625 11.9140625 C0.3826416 12.5529541 0.3512207 13.1918457 0.31884766 13.85009766 C0 16 0 16 -0.98632812 18.86328125 C-2.0301713 22.09336245 -2.39857723 24.89375717 -2.6328125 28.2734375 C-2.71660156 29.42714844 -2.80039062 30.58085937 -2.88671875 31.76953125 C-2.96535156 32.95933594 -3.04398437 34.14914062 -3.125 35.375 C-3.21136719 36.58800781 -3.29773438 37.80101562 -3.38671875 39.05078125 C-3.59808827 42.03344009 -3.80228076 45.01641038 -4 48 C-3.34 48 -2.68 48 -2 48 C-2.33 51.96 -2.66 55.92 -3 60 C-3.33 60 -3.66 60 -4 60 C-5.84626339 44.57764566 -6.36985613 28.2358344 -3 13 C-2.73574219 11.79085938 -2.47148437 10.58171875 -2.19921875 9.3359375 C-1.49443961 6.21620426 -0.76252961 3.10603729 0 0 Z " fill="#D4F4FD" transform="translate(335,368)"/>
<path d="M0 0 C1.32 0.66 2.64 1.32 4 2 C3.01 2.495 3.01 2.495 2 3 C3.7578125 3.94401042 5.515625 4.88802083 7.2734375 5.83203125 C9 7 9 7 11 10 C11.99 10.33 12.98 10.66 14 11 C14 12.65 14 14.3 14 16 C14.86625 16.0928125 14.86625 16.0928125 15.75 16.1875 C18.92448483 17.33384174 20.12848575 19.25956842 22 22 C22 22.66 22 23.32 22 24 C22.66 24.33 23.32 24.66 24 25 C21 25 21 25 19.67578125 23.71484375 C19.22589844 23.12832031 18.77601563 22.54179687 18.3125 21.9375 C11.98855821 14.20307119 3.72581061 8.26301926 -4 2 C-3.34 1.67 -2.68 1.34 -2 1 C-1.34 1.33 -0.68 1.66 0 2 C0 1.34 0 0.68 0 0 Z " fill="#68A3D6" transform="translate(557,288)"/>
<path d="M0 0 C1.61333024 5.27789463 -0.2609568 9.32911973 -2.4375 14.25 C-4 17 -4 17 -5.4453125 18.4140625 C-7.70697067 20.72118114 -9.06142078 23.44731269 -10.62109375 26.2578125 C-12.2889121 28.36502776 -13.38719104 28.6338739 -16 29 C-14.7786329 25.70116737 -13.42491275 22.97655461 -11.375 20.125 C-7.0006203 13.74750088 -3.5575909 6.85332866 0 0 Z " fill="#E2F8FD" transform="translate(767,539)"/>
<path d="M0 0 C2 0 2 0 3.5 1.1875 C5.26448614 3.31958742 5.97627643 5.44069108 7 8 C7.495 8.474375 7.99 8.94875 8.5 9.4375 C10 11 10 11 11 14.0625 C11.76334112 17.28198892 11.76334112 17.28198892 15 19 C15.33 19.99 15.66 20.98 16 22 C16.78375 22.61875 17.5675 23.2375 18.375 23.875 C21.10013142 26.08105877 22.53662397 27.82935194 24 31 C23.67 31.99 23.34 32.98 23 34 C17.05737998 27.30043028 11.4339145 20.50497878 6.4375 13.0625 C6.02064941 12.44882568 5.60379883 11.83515137 5.17431641 11.20288086 C2.79860908 7.58812353 1.1752871 4.16115163 0 0 Z " fill="#DAF6FE" transform="translate(346,472)"/>
<path d="M0 0 C5.22388757 0.53304975 9.22637279 1.86009815 14 4 C16.38296282 4.82011058 18.7762252 5.59386083 21.1796875 6.3515625 C23 7 23 7 24 8 C25.93566625 8.23361489 27.87153517 8.46572585 29.80859375 8.6875 C34.76591927 9.39442699 39.40815587 11.05194491 44 13 C31.57614776 17.31092704 11.3978555 5.97802477 0 1 C0 0.67 0 0.34 0 0 Z " fill="#DBF4FD" transform="translate(408,534)"/>
<path d="M0 0 C2.625 0.375 2.625 0.375 5 1 C3.00993836 3.1067022 1.07326211 4.70488214 -1.40625 6.19921875 C-2.39141602 6.80080811 -2.39141602 6.80080811 -3.39648438 7.41455078 C-4.09064453 7.83462402 -4.78480469 8.25469727 -5.5 8.6875 C-12.24858708 12.82951428 -18.68744513 17.21208762 -25 22 C-25.33 21.34 -25.66 20.68 -26 20 C-25.0625 17.375 -25.0625 17.375 -24 15 C-22.02 15 -20.04 15 -18 15 C-17.34 13.68 -16.68 12.36 -16 11 C-14.68 11 -13.36 11 -12 11 C-11.67 10.01 -11.34 9.02 -11 8 C-8.33916031 6.00603743 -5.38757675 4 -2 4 C-2 3.34 -2 2.68 -2 2 C-1.34 1.34 -0.68 0.68 0 0 Z " fill="#DDF3FB" transform="translate(282,114)"/>
<path d="M0 0 C4.13689421 0.18804065 5.73554469 0.76428983 8.875 3.5625 C9.57625 4.366875 10.2775 5.17125 11 6 C10.67 6.66 10.34 7.32 10 8 C8.68 7.34 7.36 6.68 6 6 C5.01 6.66 4.02 7.32 3 8 C2.01 7.34 1.02 6.68 0 6 C0 6.66 0 7.32 0 8 C-1.03125 7.79375 -2.0625 7.5875 -3.125 7.375 C-7.1234216 6.98805597 -9.33693757 7.48116924 -13 9 C-10.71141653 6.47517566 -8.37656871 4.96866677 -5.375 3.375 C-2.49917615 1.94660084 -2.49917615 1.94660084 0 0 Z " fill="#5EA8EC" transform="translate(549,527)"/>
<path d="M0 0 C2.29619912 2.1078119 3.70268031 4.04780831 5.05078125 6.8515625 C5.41703613 7.61267334 5.78329102 8.37378418 6.16064453 9.15795898 C6.54075684 9.97208252 6.92086914 10.78620605 7.3125 11.625 C7.70550293 12.46297119 8.09850586 13.30094238 8.50341797 14.16430664 C11.11549319 19.83802414 13.50082902 25.56361572 15.625 31.4375 C15.88450439 32.1402002 16.14400879 32.84290039 16.41137695 33.56689453 C17.60588673 37.01394467 18.46984782 39.53788857 17 43 C15.29843137 38.49084314 13.62892643 33.9734336 12 29.4375 C9.74880698 21.96200115 9.74880698 21.96200115 5.546875 15.69140625 C3.40114777 13.34519441 2.76891278 10.953315 1.8125 7.9375 C1.46832031 6.87402344 1.12414062 5.81054688 0.76953125 4.71484375 C0 2 0 2 0 0 Z " fill="#68A1DA" transform="translate(583,203)"/>
<path d="M0 0 C0 3 0 3 -1.75 4.9375 C-2.4925 5.618125 -3.235 6.29875 -4 7 C-4.680625 7.721875 -5.36125 8.44375 -6.0625 9.1875 C-9.60605075 12.50243457 -13.05628634 12.1083536 -17.6875 12.0625 C-19.45673828 12.04896484 -19.45673828 12.04896484 -21.26171875 12.03515625 C-22.16535156 12.02355469 -23.06898438 12.01195312 -24 12 C-24 12.66 -24 13.32 -24 14 C-29.75 12.25 -29.75 12.25 -32 10 C-31.34 10 -30.68 10 -30 10 C-30 9.34 -30 8.68 -30 8 C-29.21625 8.165 -28.4325 8.33 -27.625 8.5 C-20.11353162 9.5360646 -13.7883633 9.84246979 -7 6 C-4.55689344 4.1099589 -2.25101366 2.11417392 0 0 Z " fill="#64A3E2" transform="translate(674,609)"/>
<path d="M0 0 C1.98 0.66 3.96 1.32 6 2 C6 2.99 6 3.98 6 5 C6.99 4.67 7.98 4.34 9 4 C9.66 4.33 10.32 4.66 11 5 C11.625 7.5625 11.625 7.5625 12 10 C12.99 10.33 13.98 10.66 15 11 C20.51915792 18.56913086 19.36593453 27.05493366 19 36 C18.01 36.495 18.01 36.495 17 37 C17.03480469 36.23816406 17.06960938 35.47632813 17.10546875 34.69140625 C17.36832548 24.66529969 16.4219865 18.40114882 9.625 10.8125 C8.08728409 9.20454584 6.54592018 7.600068 5 6 C3.29464728 4.02806341 1.64809587 2.02024655 0 0 Z " fill="#629FD5" transform="translate(661,567)"/>
<path d="M0 0 C-0.02320313 0.65226563 -0.04640625 1.30453125 -0.0703125 1.9765625 C-0.17583753 7.08698903 -0.01926302 11.20425033 2 16 C2.33 16 2.66 16 3 16 C3 19.3 3 22.6 3 26 C4.258125 25.938125 5.51625 25.87625 6.8125 25.8125 C8.95703125 25.70703125 8.95703125 25.70703125 11 26 C11.99 26.99 12.98 27.98 14 29 C10.04 28.67 6.08 28.34 2 28 C0.99726307 23.87564751 -0.00231219 19.75057392 -1 15.625 C-1.28617188 14.449375 -1.57234375 13.27375 -1.8671875 12.0625 C-2.13789062 10.94101563 -2.40859375 9.81953125 -2.6875 8.6640625 C-2.93886719 7.62717285 -3.19023438 6.5902832 -3.44921875 5.52197266 C-4 3 -4 3 -4 1 C-1 0 -1 0 0 0 Z " fill="#DEF6FD" transform="translate(606,245)"/>
<path d="M0 0 C0.55429687 0.28101563 1.10859375 0.56203125 1.6796875 0.8515625 C3.27695759 1.64213052 4.88742992 2.40639314 6.5078125 3.1484375 C7.80332031 3.75558594 7.80332031 3.75558594 9.125 4.375 C9.99382812 4.77460937 10.86265625 5.17421875 11.7578125 5.5859375 C14.33853335 7.21350012 14.67308887 8.33604865 16 11 C18.41063308 12.8574845 18.41063308 12.8574845 21.25 14.5 C22.23097656 15.09941406 23.21195313 15.69882812 24.22265625 16.31640625 C25.13917969 16.87199219 26.05570313 17.42757812 27 18 C29.01566328 19.31190229 31.00721717 20.65352511 33 22 C32.01 22.495 32.01 22.495 31 23 C28.63596011 21.81033439 26.43542401 20.57133276 24.1875 19.1875 C23.19121582 18.58095581 23.19121582 18.58095581 22.17480469 17.9621582 C4.79398753 7.17456353 4.79398753 7.17456353 0 0 Z " fill="#6BA3DD" transform="translate(63,591)"/>
<path d="M0 0 C9.08375883 13.62563824 5.28449743 38.24759629 5 54 C4.67 54 4.34 54 4 54 C3.98541748 53.1342334 3.97083496 52.2684668 3.95581055 51.37646484 C3.89390241 48.09205207 3.81961007 44.80836276 3.73754883 41.52441406 C3.70476899 40.11663974 3.6765997 38.70874873 3.65356445 37.30078125 C3.50673458 28.55346952 2.76366129 20.53541189 0.65039062 12.01171875 C-0.23705432 7.90228898 -0.21649986 4.18566398 0 0 Z " fill="#D5F5FD" transform="translate(608,370)"/>
<path d="M0 0 C0.33 0.66 0.66 1.32 1 2 C1.60714844 2.30292969 2.21429687 2.60585938 2.83984375 2.91796875 C8.2169911 5.61140422 12.20628031 10.79352239 15 16 C15.43570313 16.65355469 15.87140625 17.30710937 16.3203125 17.98046875 C16.79210937 18.68816406 17.26390625 19.39585937 17.75 20.125 C18.19859375 20.78757812 18.6471875 21.45015625 19.109375 22.1328125 C20 24 20 24 19 27 C18.55011719 26.27296875 18.10023438 25.5459375 17.63671875 24.796875 C11.96197019 15.92652656 5.43291189 8.43291189 -2 1 C-1.34 0.67 -0.68 0.34 0 0 Z " fill="#DFF9FE" transform="translate(537,331)"/>
<path d="M0 0 C0.33 0.66 0.66 1.32 1 2 C-0.625 5 -0.625 5 -3 8 C-4.99952758 8.04346799 -7.00039988 8.039992 -9 8 C-11.02054804 9.64169528 -13.02043058 11.30911778 -15 13 C-18.375 13.8125 -18.375 13.8125 -21 14 C-17.05028328 9.61402265 -12.86417227 6.96782174 -7.6875 4.1875 C-6.94693359 3.78080078 -6.20636719 3.37410156 -5.44335938 2.95507812 C-3.63310452 1.96235772 -1.81712245 0.98009307 0 0 Z " fill="#E9FAFB" transform="translate(407,280)"/>
<path d="M0 0 C-2.42546318 2.74182794 -5.00750365 4.72200952 -8.0625 6.6875 C-13.72688797 10.35991154 -18.83990605 14.65973406 -24 19 C-24.33 18.01 -24.66 17.02 -25 16 C-24.01 15.67 -23.02 15.34 -22 15 C-22 14.34 -22 13.68 -22 13 C-21.01 12.67 -20.02 12.34 -19 12 C-18.34 11.01 -17.68 10.02 -17 9 C-16.01 8.67 -15.02 8.34 -14 8 C-13.67 7.01 -13.34 6.02 -13 5 C-11.1875 4 -11.1875 4 -9 3 C-8.360625 2.46375 -7.72125 1.9275 -7.0625 1.375 C-4.53440331 -0.31039779 -2.97832406 -0.24819367 0 0 Z " fill="#6AA1DB" transform="translate(402,282)"/>
<path d="M0 0 C0.598125 0.350625 1.19625 0.70125 1.8125 1.0625 C0.1625 1.0625 -1.4875 1.0625 -3.1875 1.0625 C-3.5175 1.7225 -3.8475 2.3825 -4.1875 3.0625 C-4.8475 2.7325 -5.5075 2.4025 -6.1875 2.0625 C-6.5175 2.7225 -6.8475 3.3825 -7.1875 4.0625 C-8.84948757 4.41843008 -10.51733651 4.74715445 -12.1875 5.0625 C-14.1045858 5.82350086 -16.00096817 6.63840556 -17.875 7.5 C-18.82761719 7.93183594 -19.78023438 8.36367188 -20.76171875 8.80859375 C-23.28445123 9.95714846 -23.28445123 9.95714846 -25.1875 12.0625 C-31.53365385 15.0625 -31.53365385 15.0625 -35.1875 15.0625 C-28.60138466 9.5162976 -8.51217464 -3.64807485 0 0 Z " fill="#699FD6" transform="translate(450.1875,311.9375)"/>
<path d="M0 0 C5.06623768 4.23816537 9.80038069 8.67408963 14.4375 13.375 C15.07365234 14.01566406 15.70980469 14.65632812 16.36523438 15.31640625 C17.91250332 16.87530879 19.45736492 18.43651416 21 20 C20.01 20.33 19.02 20.66 18 21 C16.17578125 20.07421875 16.17578125 20.07421875 14.3125 18.6875 C13.68988281 18.23761719 13.06726563 17.78773438 12.42578125 17.32421875 C11.72001953 16.66873047 11.72001953 16.66873047 11 16 C11 15.34 11 14.68 11 14 C10.34 13.67 9.68 13.34 9 13 C8.67 12.01 8.34 11.02 8 10 C6.68662604 8.9739266 5.35335895 7.97272675 4 7 C3.67 6.34 3.34 5.68 3 5 C2.34 5 1.68 5 1 5 C0.67 3.35 0.34 1.7 0 0 Z " fill="#DEF6FE" transform="translate(636,543)"/>
<path d="M0 0 C-5.59814306 3.73209538 -11.45532538 4.27269478 -18 4 C-18 4.66 -18 5.32 -18 6 C-20.08047297 6.5321441 -22.16452293 7.05031786 -24.25 7.5625 C-25.41015625 7.85253906 -26.5703125 8.14257812 -27.765625 8.44140625 C-30.72090983 8.95179964 -32.24434101 9.02996165 -35 8 C-11.49597659 -0.32845647 -11.49597659 -0.32845647 0 0 Z " fill="#64A1D6" transform="translate(355,93)"/>
<path d="M0 0 C0.33 0 0.66 0 1 0 C2.11776211 10.84051822 -0.27172599 17.07149128 -6 26 C-6.66 26 -7.32 26 -8 26 C-7.608125 24.865625 -7.21625 23.73125 -6.8125 22.5625 C-4.32061377 15.11080176 -2.19135847 7.54416296 0 0 Z " fill="#DFF4FD" transform="translate(567,427)"/>
<path d="M0 0 C5.06623768 4.23816537 9.80038069 8.67408963 14.4375 13.375 C15.07365234 14.01566406 15.70980469 14.65632812 16.36523438 15.31640625 C17.91250332 16.87530879 19.45736492 18.43651416 21 20 C20.34 20.66 19.68 21.32 19 22 C16.33333333 19.33333333 13.66666667 16.66666667 11 14 C9.87851562 12.94039062 9.87851562 12.94039062 8.734375 11.859375 C7 10 7 10 7 8 C6.34 8 5.68 8 5 8 C2.375 5.6875 2.375 5.6875 0 3 C0 2.01 0 1.02 0 0 Z " fill="#DEF8FE" transform="translate(615,522)"/>
<path d="M0 0 C4.24473609 1.45645073 7.38408155 3.5914138 10.9375 6.3125 C11.98292969 7.11171875 13.02835938 7.9109375 14.10546875 8.734375 C17.12633105 11.0988826 20.0933581 13.49705837 23 16 C20.33333333 16 17.66666667 16 15 16 C15.33 14.68 15.66 13.36 16 12 C13.85086751 10.90544182 11.69709659 9.86553353 9.4921875 8.88671875 C8.62851562 8.49097656 7.76484375 8.09523437 6.875 7.6875 C6.00617187 7.29949219 5.13734375 6.91148437 4.2421875 6.51171875 C1.50013773 4.66298484 0.92974839 3.11831342 0 0 Z " fill="#6AA3DC" transform="translate(513,127)"/>
<path d="M0 0 C0.969375 0.309375 1.93875 0.61875 2.9375 0.9375 C4.125 3.4375 4.125 3.4375 4.9375 5.9375 C5.9275 6.2675 6.9175 6.5975 7.9375 6.9375 C8.2675 8.9175 8.5975 10.8975 8.9375 12.9375 C7.82375 11.7928125 7.82375 11.7928125 6.6875 10.625 C3.55014364 7.45511759 3.55014364 7.45511759 -0.0625 4.9375 C-2.95150605 5.21935425 -5.30597003 6.01865668 -8.0625 6.9375 C-8.0625 6.2775 -8.0625 5.6175 -8.0625 4.9375 C-7.4025 4.9375 -6.7425 4.9375 -6.0625 4.9375 C-6.0625 3.9475 -6.0625 2.9575 -6.0625 1.9375 C-3.0625 -0.0625 -3.0625 -0.0625 0 0 Z " fill="#E2F9FD" transform="translate(553.0625,523.0625)"/>
<path d="M0 0 C0.66 0.33 1.32 0.66 2 1 C-3.62711111 5.14902202 -9.4077962 8.96735102 -15.4375 12.5 C-16.04029785 12.86222656 -16.6430957 13.22445312 -17.26416016 13.59765625 C-18.79858624 14.48015673 -20.39686757 15.24950888 -22 16 C-22.99 15.67 -23.98 15.34 -25 15 C-21.93882432 12.37613513 -21.26826873 12 -17 12 C-17 11.01 -17 10.02 -17 9 C-15.68 9 -14.36 9 -13 9 C-13 8.01 -13 7.02 -13 6 C-11.96875 5.7525 -10.9375 5.505 -9.875 5.25 C-5.99399857 4.15920937 -3.23990359 2.37066116 0 0 Z " fill="#65A1D7" transform="translate(714,602)"/>
<path d="M0 0 C0.99 0.33 1.98 0.66 3 1 C2.38125 1.2475 1.7625 1.495 1.125 1.75 C-1.35068687 3.20628639 -1.95125002 4.37812506 -3 7 C-3.85078125 6.74089844 -3.85078125 6.74089844 -4.71875 6.4765625 C-7.17726394 5.96296883 -9.01650451 6.0603105 -11.5 6.375 C-12.2528125 6.46523438 -13.005625 6.55546875 -13.78125 6.6484375 C-15.89772937 6.98379515 -17.9313137 7.44521595 -20 8 C-15.81783982 3.15749874 -10.22149085 2.55592263 -4.20703125 1.46484375 C-1.97154591 1.09130341 -1.97154591 1.09130341 0 0 Z " fill="#61AEF5" transform="translate(119,296)"/>
<path d="M0 0 C6.15234375 -0.09765625 6.15234375 -0.09765625 8 0 C8.33 0.33 8.66 0.66 9 1 C10.34747084 1.23075082 11.70377565 1.41153063 13.0625 1.5625 C14.361875 1.706875 15.66125 1.85125 17 2 C17 2.66 17 3.32 17 4 C18.37285156 4.30744141 18.37285156 4.30744141 19.7734375 4.62109375 C20.96195313 4.89050781 22.15046875 5.15992188 23.375 5.4375 C25.15003906 5.83775391 25.15003906 5.83775391 26.9609375 6.24609375 C30 7 30 7 32 8 C31.67 8.99 31.34 9.98 31 11 C29.76765625 10.52949219 28.5353125 10.05898438 27.265625 9.57421875 C18.26444599 6.1752294 9.43620553 2.97764787 0 1 C0 0.67 0 0.34 0 0 Z " fill="#D9F4FD" transform="translate(640,277)"/>
<path d="M0 0 C1.20119766 3.60359297 0.69352775 5.10969456 -0.21484375 8.76171875 C-0.48876953 9.87998047 -0.76269531 10.99824219 -1.04492188 12.15039062 C-1.33947266 13.31763672 -1.63402344 14.48488281 -1.9375 15.6875 C-2.22818359 16.86634766 -2.51886719 18.04519531 -2.81835938 19.25976562 C-3.53833004 22.17505666 -4.265818 25.08826138 -5 28 C-5.33 28 -5.66 28 -6 28 C-6.45755719 20.37404682 -4.74536299 13.3970146 -3 6 C-3.66 6 -4.32 6 -5 6 C-5 5.34 -5 4.68 -5 4 C-3.35 3.34 -1.7 2.68 0 2 C0 1.34 0 0.68 0 0 Z " fill="#D8F4FB" transform="translate(182,241)"/>
<path d="M0 0 C5.84277171 1.49756479 10.51577515 2.77201657 15 7 C18.32398466 9.77226585 18.32398466 9.77226585 22 12 C21.01 13.485 21.01 13.485 20 15 C19.31035156 14.49210938 18.62070312 13.98421875 17.91015625 13.4609375 C12.55344839 9.53709388 7.1684478 5.71947521 1.58203125 2.12890625 C1.05996094 1.75636719 0.53789062 1.38382812 0 1 C0 0.67 0 0.34 0 0 Z " fill="#DEF3FD" transform="translate(506,121)"/>
<path d="M0 0 C-1.08539063 0.60328125 -2.17078125 1.2065625 -3.2890625 1.828125 C-4.73444699 2.63528777 -6.17975546 3.44258668 -7.625 4.25 C-8.33785156 4.64574219 -9.05070312 5.04148437 -9.78515625 5.44921875 C-13.9883273 7.80145209 -18.03098955 10.27052278 -22 13 C-22 12.01 -22 11.02 -22 10 C-20.5390625 8.61328125 -20.5390625 8.61328125 -18.625 7.3125 C-17.99851562 6.87550781 -17.37203125 6.43851562 -16.7265625 5.98828125 C-15 5 -15 5 -13 5 C-12.67 4.01 -12.34 3.02 -12 2 C-10.29296875 1.015625 -10.29296875 1.015625 -8.1875 0.25 C-7.50042969 -0.01296875 -6.81335938 -0.2759375 -6.10546875 -0.546875 C-3.70237026 -1.0640539 -2.33304067 -0.65970208 0 0 Z " fill="#E2F9FC" transform="translate(96,305)"/>
<path d="M0 0 C0 0.66 0 1.32 0 2 C-0.7425 2.2475 -1.485 2.495 -2.25 2.75 C-5.07144546 3.81309198 -5.07144546 3.81309198 -6.8125 6 C-9.48002002 8.43887545 -11.50246602 8.78082325 -14.96875 9.4921875 C-17.29799692 9.99646923 -17.29799692 9.99646923 -20.375 11.6875 C-21.24125 12.120625 -22.1075 12.55375 -23 13 C-23.66 12.67 -24.32 12.34 -25 12 C-22.45934066 10.56069536 -19.91751978 9.12351161 -17.375 7.6875 C-16.66214844 7.28337891 -15.94929688 6.87925781 -15.21484375 6.46289062 C-3.76028963 0 -3.76028963 0 0 0 Z " fill="#69A2D9" transform="translate(304,108)"/>
<path d="M0 0 C0 3 0 3 -1.3125 4.375 C-1.869375 4.91125 -2.42625 5.4475 -3 6 C-4.68464666 8.71008376 -6.25809713 11.46279485 -7.8125 14.25 C-10 17 -10 17 -13.25 17.875 C-14.1575 17.91625 -15.065 17.9575 -16 18 C-11.37338295 11.26695568 -5.86878323 5.66001228 0 0 Z " fill="#62A2DB" transform="translate(240,150)"/>
<path d="M0 0 C2.64 0 5.28 0 8 0 C8 0.66 8 1.32 8 2 C8.59167969 2.12117188 9.18335938 2.24234375 9.79296875 2.3671875 C14.82255031 3.43381981 19.38235645 4.69117823 24 7 C23.67 7.66 23.34 8.32 23 9 C15.13620323 6.81659819 7.58324716 4.00714974 0 1 C0 0.67 0 0.34 0 0 Z " fill="#6CA6DF" transform="translate(511,269)"/>
<path d="M0 0 C1.94566951 3.47547073 2.07637127 5.12506344 1 9 C0.34 9 -0.32 9 -1 9 C-1 9.66 -1 10.32 -1 11 C-1.763125 11.45375 -2.52625 11.9075 -3.3125 12.375 C-6.00869044 14.00525469 -7.29482136 15.39735892 -9 18 C-8.45207105 13.3817417 -6.41035512 10.01850353 -3.9375 6.1875 C-3.56044922 5.59001953 -3.18339844 4.99253906 -2.79492188 4.37695312 C-1.87010434 2.91363423 -0.93597935 1.45620477 0 0 Z " fill="#60A5E4" transform="translate(206,192)"/>
<path d="M0 0 C0.33 0.66 0.66 1.32 1 2 C0.0625 4.125 0.0625 4.125 -1 6 C-1.66 6 -2.32 6 -3 6 C-3.07476563 6.76570313 -3.14953125 7.53140625 -3.2265625 8.3203125 C-4 11 -4 11 -5.9609375 12.6171875 C-6.75757813 13.03226562 -7.55421875 13.44734375 -8.375 13.875 C-9.16648437 14.30554688 -9.95796875 14.73609375 -10.7734375 15.1796875 C-13 16 -13 16 -16 15 C-11.25 11 -11.25 11 -9 11 C-9 10.34 -9 9.68 -9 9 C-7.5390625 7.59765625 -7.5390625 7.59765625 -5.625 6.0625 C-3.16098476 4.08013383 -1.79533563 2.69300345 0 0 Z " fill="#E0F6FD" transform="translate(545,472)"/>
<path d="M0 0 C0.66 0.33 1.32 0.66 2 1 C0.4422692 4.82352106 -1.91595258 7.29205593 -5 10 C-5.99 10 -6.98 10 -8 10 C-8.0825 10.61875 -8.165 11.2375 -8.25 11.875 C-9 14 -9 14 -11.0625 15.25 C-11.701875 15.4975 -12.34125 15.745 -13 16 C-11.43636055 12.34584258 -9.17824958 9.7880312 -6.5 6.875 C-5.7059375 6.00617188 -4.911875 5.13734375 -4.09375 4.2421875 C-2.75256247 2.80591578 -1.38954317 1.38954317 0 0 Z " fill="#65A4DE" transform="translate(56,333)"/>
<path d="M0 0 C-6.6 2.97 -13.2 5.94 -20 9 C-20 8.34 -20 7.68 -20 7 C-19.34 7 -18.68 7 -18 7 C-17.773125 6.401875 -17.54625 5.80375 -17.3125 5.1875 C-15.5680628 2.28010466 -14.08685873 1.40921812 -11 0 C-7.10627979 -0.85935622 -3.85569919 -1.28523306 0 0 Z " fill="#DAF7FD" transform="translate(308,106)"/>
<path d="M0 0 C0.309375 0.9590625 0.309375 0.9590625 0.625 1.9375 C1.89538209 4.34925077 1.89538209 4.34925077 5.125 4.75 C6.07375 4.8325 7.0225 4.915 8 5 C5.76504572 7.23495428 3.97585464 8.0024791 1.0625 9.1875 C-0.25041016 9.73470703 -0.25041016 9.73470703 -1.58984375 10.29296875 C-4 11 -4 11 -7 10 C-6.34 10 -5.68 10 -5 10 C-5 9.34 -5 8.68 -5 8 C-3.68 7.67 -2.36 7.34 -1 7 C-1.20625 6.401875 -1.4125 5.80375 -1.625 5.1875 C-2 3 -2 3 0 0 Z " fill="#5CA9E5" transform="translate(677,615)"/>
<path d="M0 0 C0 3 0 3 0 3 Z M-3 3 C-2.34 3.33 -1.68 3.66 -1 4 C-3.64370278 8.46395715 -6.12524205 12.48850061 -10 16 C-10.9075 16.9075 -11.815 17.815 -12.75 18.75 C-13.86375 19.86375 -13.86375 19.86375 -15 21 C-15 17.09330712 -13.72149765 16.0926012 -11.25 13.125 C-10.55390625 12.28195312 -9.8578125 11.43890625 -9.140625 10.5703125 C-8.43421875 9.72210938 -7.7278125 8.87390625 -7 8 C-5.66329672 6.33603489 -4.32894854 4.67016506 -3 3 Z " fill="#DAF7FC" transform="translate(372,305)"/>
<path d="M0 0 C0.66 0.99 1.32 1.98 2 3 C1.34 3 0.68 3 0 3 C-0.268125 4.03125 -0.53625 5.0625 -0.8125 6.125 C-1.44695261 8.56520236 -2.27381996 10.54537069 -3.4140625 12.81640625 C-5.5840289 17.17237329 -7.15868523 21.69917891 -8.81640625 26.26953125 C-10 29 -10 29 -12 30 C-10.15430565 21.27140381 -6.53688161 6.53688161 0 0 Z " fill="#65A1D3" transform="translate(196,210)"/>
<path d="M0 0 C1 3 1 3 -0.58203125 6.5390625 C-1.31507119 7.90669419 -2.0590375 9.26851252 -2.8125 10.625 C-3.36647461 11.66527344 -3.36647461 11.66527344 -3.93164062 12.7265625 C-6.72542547 17.86271273 -6.72542547 17.86271273 -9 19 C-8.02944438 13.75899966 -7.06035193 9.46301322 -4 5 C-3.649375 4.2575 -3.29875 3.515 -2.9375 2.75 C-2 1 -2 1 0 0 Z " fill="#66A3D8" transform="translate(767,536)"/>
<path d="M0 0 C0.33 0 0.66 0 1 0 C2.6120509 6.76485645 3.26618595 13.04958914 3 20 C2.67 19.34 2.34 18.68 2 18 C1.34 18 0.68 18 0 18 C-1.63106796 3.26213592 -1.63106796 3.26213592 0 0 Z " fill="#67A9E3" transform="translate(780,419)"/>
<path d="M0 0 C7.153587 6.52148125 11.77108172 17.65391509 14 27 C13.59765625 29.3125 13.59765625 29.3125 13 31 C12.61328125 29.9378125 12.2265625 28.875625 11.828125 27.78125 C8.80876995 19.56086882 5.82393046 11.63931432 1.25 4.125 C0 2 0 2 0 0 Z " fill="#609DC9" transform="translate(552,352)"/>
<path d="M0 0 C1.32 0.33 2.64 0.66 4 1 C4.33 3.64 4.66 6.28 5 9 C5.66 9 6.32 9 7 9 C9 11 9 11 9 15 C9.66 15 10.32 15 11 15 C11.33 15.99 11.66 16.98 12 18 C12.66 18.66 13.32 19.32 14 20 C14.625 22.125 14.625 22.125 15 24 C11.24053088 20.47672789 8.51402244 16.99884923 5.8125 12.5625 C4.80123047 10.92474609 4.80123047 10.92474609 3.76953125 9.25390625 C2.11028258 6.20279335 0.97763776 3.32396837 0 0 Z " fill="#649ED8" transform="translate(383,447)"/>
<path d="M0 0 C4.13159633 0.63504166 7.49726486 1.98696998 11.25 3.8125 C12.30703125 4.31394531 13.3640625 4.81539063 14.453125 5.33203125 C17 7 17 7 17.859375 9.19921875 C17.90578125 9.79347656 17.9521875 10.38773437 18 11 C13.74693457 9.47017797 10.00735822 7.31799136 6.1875 4.9375 C5.59001953 4.57333984 4.99253906 4.20917969 4.37695312 3.83398438 C2.89859629 2.91993746 1.44651932 1.96364025 0 1 C0 0.67 0 0.34 0 0 Z " fill="#63A3D8" transform="translate(535,278)"/>
<path d="M0 0 C0.60473145 0.14622803 1.20946289 0.29245605 1.83251953 0.44311523 C4.59616062 1.11008242 7.36056846 1.77381703 10.125 2.4375 C11.55199219 2.78264648 11.55199219 2.78264648 13.0078125 3.13476562 C17.65584687 4.24835719 22.2662196 5.30666853 27 6 C27 6.33 27 6.66 27 7 C19.32184143 7.43325033 13.14651839 7.27804154 6.12109375 3.97265625 C4.08626714 3.03955896 2.18280689 2.47021917 0 2 C0 1.34 0 0.68 0 0 Z " fill="#D8F5FE" transform="translate(123,626)"/>
<path d="M0 0 C0 0.99 0 1.98 0 3 C-1.97946592 4.36363208 -3.9819245 5.69418644 -6 7 C-6.474375 7.680625 -6.94875 8.36125 -7.4375 9.0625 C-9.80129416 11.99360476 -12.48432939 12.8281098 -16 14 C-18.22265625 13.57421875 -18.22265625 13.57421875 -20 13 C-19.14277344 12.48050781 -18.28554688 11.96101562 -17.40234375 11.42578125 C-11.45663076 7.80536756 -5.58944869 4.15958972 0 0 Z " fill="#D8F6FD" transform="translate(719,600)"/>
<path d="M0 0 C-3.20490963 2.59037598 -6.55350453 4.37943156 -10.25 6.1875 C-11.86648438 6.98220703 -11.86648438 6.98220703 -13.515625 7.79296875 C-14.33546875 8.19128906 -15.1553125 8.58960938 -16 9 C-16 6 -16 6 -14.875 4.5 C-10.05032303 0.64025842 -6.14012546 -0.36840753 0 0 Z " fill="#DDF8FD" transform="translate(545,530)"/>
<path d="M0 0 C1.32 0.33 2.64 0.66 4 1 C2.58611621 2.75224914 1.16877217 4.50170655 -0.25 6.25 C-1.03890625 7.22453125 -1.8278125 8.1990625 -2.640625 9.203125 C-4.66465805 11.60247544 -6.74122349 13.82411437 -9 16 C-8.47692667 12.12925735 -7.69586272 10.69586272 -5 8 C-3.79950593 4.89992799 -3.79950593 4.89992799 -3 2 C-2.01 2 -1.02 2 0 2 C0 1.34 0 0.68 0 0 Z " fill="#DCF5FD" transform="translate(43,343)"/>
<path d="M0 0 C2.75945679 3.55168793 5.19250587 7.28428734 7.625 11.0625 C8.03234375 11.68705078 8.4396875 12.31160156 8.859375 12.95507812 C10.57558628 15.61747873 11.99391081 17.98173244 13 21 C10.49343062 20.62747377 9.30210142 20.35088267 7.62109375 18.3984375 C4.17513666 12.50732934 1.03732627 6.84635337 0 0 Z " fill="#D8F3FE" transform="translate(25,544)"/>
<path d="M0 0 C1.32 0.66 2.64 1.32 4 2 C3.01 2.495 3.01 2.495 2 3 C3.7578125 3.94401042 5.515625 4.88802083 7.2734375 5.83203125 C9 7 9 7 11 10 C11.99 10.33 12.98 10.66 14 11 C13.67 11.99 13.34 12.98 13 14 C13 13.34 13 12.68 13 12 C12.4225 11.9175 11.845 11.835 11.25 11.75 C8.39568633 10.79856211 7.10391807 9.10391807 5 7 C4.01 7 3.02 7 2 7 C-0.18052998 5.51448079 -2.02195971 3.75825803 -4 2 C-3.34 1.67 -2.68 1.34 -2 1 C-1.34 1.33 -0.68 1.66 0 2 C0 1.34 0 0.68 0 0 Z " fill="#66AEF0" transform="translate(557,288)"/>
<path d="M0 0 C0.33 0.66 0.66 1.32 1 2 C-0.47169811 5.73584906 -0.47169811 5.73584906 -3 7 C-4.13102526 9.34038186 -4.13102526 9.34038186 -5.125 12.0625 C-5.47820312 12.98160156 -5.83140625 13.90070313 -6.1953125 14.84765625 C-6.46085938 15.55792969 -6.72640625 16.26820313 -7 17 C-8.32 17 -9.64 17 -11 17 C-9.56407335 12.88016856 -7.53749031 9.74182002 -4.9375 6.25 C-4.22464844 5.28578125 -3.51179687 4.3215625 -2.77734375 3.328125 C-1 1 -1 1 0 0 Z " fill="#66A2DE" transform="translate(218,175)"/>
<path d="M0 0 C0.66 0.33 1.32 0.66 2 1 C-0.26910712 2.96036467 -2.54019158 4.91835216 -4.8125 6.875 C-5.77639648 7.70837891 -5.77639648 7.70837891 -6.75976562 8.55859375 C-7.38173828 9.09355469 -8.00371094 9.62851563 -8.64453125 10.1796875 C-9.21534424 10.67194824 -9.78615723 11.16420898 -10.37426758 11.67138672 C-12 13 -12 13 -15 15 C-14.47755558 11.23840019 -13.7772785 8.67808998 -11 6 C-8.3125 5.75 -8.3125 5.75 -6 6 C-6 5.34 -6 4.68 -6 4 C-4.02709413 1.65130253 -2.99693138 0.99897713 0 0 Z " fill="#DEF6FB" transform="translate(254,136)"/>
<path d="M0 0 C0.33 0.66 0.66 1.32 1 2 C-0.29296875 4.4609375 -0.29296875 4.4609375 -2.1875 7.375 C-2.79980469 8.33148437 -3.41210938 9.28796875 -4.04296875 10.2734375 C-5.85482755 12.79774377 -7.7360735 14.88164749 -10 17 C-10 15.35 -10 13.7 -10 12 C-8.68 11.34 -7.36 10.68 -6 10 C-6 8.35 -6 6.7 -6 5 C-5.01 5 -4.02 5 -3 5 C-2.814375 4.0409375 -2.814375 4.0409375 -2.625 3.0625 C-2.41875 2.381875 -2.2125 1.70125 -2 1 C-1.34 0.67 -0.68 0.34 0 0 Z " fill="#67A6D9" transform="translate(757,555)"/>
<path d="M0 0 C1.10370043 3.3111013 0.92673641 5.24748949 0.5625 8.6875 C0.46066406 9.68136719 0.35882812 10.67523438 0.25390625 11.69921875 C0.12822266 12.83810547 0.12822266 12.83810547 0 14 C-0.66 14 -1.32 14 -2 14 C-2.66 18.62 -3.32 23.24 -4 28 C-4.33 28 -4.66 28 -5 28 C-5.21670934 21.89019478 -4.47509047 16.55885754 -3.0625 10.625 C-2.78889648 9.41650391 -2.78889648 9.41650391 -2.50976562 8.18359375 C-1.15865198 2.31730396 -1.15865198 2.31730396 0 0 Z " fill="#63A0D3" transform="translate(11,410)"/>
<path d="M0 0 C9.6613255 0.61041054 9.6613255 0.61041054 14 4 C14.33 4.66 14.66 5.32 15 6 C16.64363134 6.72159424 18.31050386 7.39351421 20 8 C19.67 8.99 19.34 9.98 19 11 C17.57107422 10.16855469 17.57107422 10.16855469 16.11328125 9.3203125 C14.84645443 8.58836811 13.57952173 7.85660695 12.3125 7.125 C11.68666016 6.76019531 11.06082031 6.39539063 10.41601562 6.01953125 C7.01805058 4.06258803 3.69932381 2.34392261 0 1 C0 0.67 0 0.34 0 0 Z " fill="#DCF8FE" transform="translate(509,316)"/>
<path d="M0 0 C-1.32 0.99 -2.64 1.98 -4 3 C-4.66 2.67 -5.32 2.34 -6 2 C-6.33 2.66 -6.66 3.32 -7 4 C-8.91635217 4.05423638 -10.83314925 4.09289963 -12.75 4.125 C-14.35101562 4.15980469 -14.35101562 4.15980469 -15.984375 4.1953125 C-18.92470106 4.00487687 -20.52361878 3.52670104 -23 2 C-20.47980028 1.66114962 -17.95901484 1.32879665 -15.4375 1 C-14.73302734 0.90460937 -14.02855469 0.80921875 -13.30273438 0.7109375 C-8.82632145 0.13333583 -4.51338762 -0.09489383 0 0 Z " fill="#F0FEFE" transform="translate(647,633)"/>
<path d="M0 0 C1.32 0 2.64 0 4 0 C4 0.99 4 1.98 4 3 C4.7425 3.268125 5.485 3.53625 6.25 3.8125 C8.95906965 4.98232553 10.91312362 5.91312362 13 8 C13.25 10.6875 13.25 10.6875 13 13 C8.11950075 9.0580583 3.9419417 4.88049925 0 0 Z " fill="#D7F1FE" transform="translate(589,563)"/>
<path d="M0 0 C-3.54768372 4.62741355 -7.55050879 5.10586932 -13 6 C-14.7634375 6.309375 -14.7634375 6.309375 -16.5625 6.625 C-17.366875 6.74875 -18.17125 6.8725 -19 7 C-16.00198136 4.59592845 -12.97975037 2.87515814 -9.5 1.25 C-8.5615625 0.80140625 -7.623125 0.3528125 -6.65625 -0.109375 C-3.85818963 -1.04754818 -2.7056029 -1.04650678 0 0 Z " fill="#D7F6FC" transform="translate(428,273)"/>
<path d="M0 0 C-2.19037174 6.72045875 -4.55765661 13.36724003 -7 20 C-7.33 20 -7.66 20 -8 20 C-8 18.02 -8 16.04 -8 14 C-7.34 14 -6.68 14 -6 14 C-5.96261719 13.15695313 -5.92523438 12.31390625 -5.88671875 11.4453125 C-5.82097656 10.34960938 -5.75523437 9.25390625 -5.6875 8.125 C-5.62949219 7.03445312 -5.57148438 5.94390625 -5.51171875 4.8203125 C-5.34285156 3.88960937 -5.17398438 2.95890625 -5 2 C-2 0 -2 0 0 0 Z " fill="#DBF6FD" transform="translate(192,218)"/>
<path d="M0 0 C0.66 0.33 1.32 0.66 2 1 C1.06027344 1.79664063 1.06027344 1.79664063 0.1015625 2.609375 C-0.71570313 3.31578125 -1.53296875 4.0221875 -2.375 4.75 C-3.59316406 5.79414063 -3.59316406 5.79414063 -4.8359375 6.859375 C-6.87984909 8.88115036 -7.80813783 10.43888221 -9 13 C-11.0625 14.125 -11.0625 14.125 -13 15 C-13.33 15.66 -13.66 16.32 -14 17 C-14.66 17 -15.32 17 -16 17 C-14.39896758 13.00215573 -11.58884625 10.32637809 -8.5625 7.375 C-8.07201172 6.88515625 -7.58152344 6.3953125 -7.07617188 5.890625 C-4.81112438 3.6530882 -2.65832501 1.77221668 0 0 Z " fill="#67A3D5" transform="translate(413,328)"/>
<path d="M0 0 C3.57829108 1.55253 6.1689217 3.71569896 9.0625 6.3125 C9.91972656 7.07175781 10.77695312 7.83101563 11.66015625 8.61328125 C13.9376911 10.93644284 15.46046685 13.14807793 17 16 C16.34 16.33 15.68 16.66 15 17 C14.7525 16.21625 14.505 15.4325 14.25 14.625 C12.84610901 11.67682892 11.99324263 11.0975223 9 10 C9 9.34 9 8.68 9 8 C8.2575 7.79375 7.515 7.5875 6.75 7.375 C3.20768823 5.60384411 1.97553159 3.36572049 0 0 Z " fill="#69A1D3" transform="translate(530,329)"/>
<path d="M0 0 C0.33 0.99 0.66 1.98 1 3 C0.46375 3.474375 -0.0725 3.94875 -0.625 4.4375 C-4.21245997 8.30818049 -8.25435769 12.9961267 -9.546875 18.203125 C-10 20 -10 20 -12.0625 21.25 C-12.701875 21.4975 -13.34125 21.745 -14 22 C-10.98828804 13.79568122 -5.79036522 6.49222767 0 0 Z " fill="#619FD5" transform="translate(42,349)"/>
<path d="M0 0 C6.93 2.97 13.86 5.94 21 9 C19.02 9.99 19.02 9.99 17 11 C17 10.34 17 9.68 17 9 C15.824375 8.9071875 15.824375 8.9071875 14.625 8.8125 C9.7113296 7.71116008 5.22689123 5.75424551 1 3 C0.67 2.01 0.34 1.02 0 0 Z " fill="#D9F2FD" transform="translate(95,614)"/>
<path d="M0 0 C0.66 0.33 1.32 0.66 2 1 C1.5547115 6.27315333 0.91626837 11.01770224 -1 16 C-3.24407571 12.48789638 -3.01857695 10.32847827 -2.1875 6.3125 C-1.89939453 4.85263672 -1.89939453 4.85263672 -1.60546875 3.36328125 C-1 1 -1 1 0 0 Z " fill="#E4F8FE" transform="translate(13,392)"/>
<path d="M0 0 C8.12091919 1.23579205 15.69496504 5.78030384 21 12 C17.5625 11.1875 17.5625 11.1875 14 10 C13.67 9.01 13.34 8.02 13 7 C11.01463373 6.29094062 9.01089078 5.63305821 7 5 C4.6018499 3.75775825 2.31791404 2.39074843 0 1 C0 0.67 0 0.34 0 0 Z " fill="#69A1D2" transform="translate(509,317)"/>
<path d="M0 0 C0.66 0.99 1.32 1.98 2 3 C-1 6 -4 9 -7 12 C-7.99 11.67 -8.98 11.34 -10 11 C-6.7 7.37 -3.4 3.74 0 0 Z " fill="#E9FCFC" transform="translate(380,298)"/>
<path d="M0 0 C0.33 0 0.66 0 1 0 C1.51917486 8.34525522 -0.04170706 15.91038514 -2 24 C-2.33 24 -2.66 24 -3 24 C-3.43630637 15.71017896 -1.77967263 8.04030671 0 0 Z " fill="#65A4DB" transform="translate(782,480)"/>
<path d="M0 0 C0.66 0 1.32 0 2 0 C-0.66738499 7.16780707 -4.57386985 13.65291196 -11 18 C-10.6875 16.125 -10.6875 16.125 -10 14 C-9.01 13.34 -8.02 12.68 -7 12 C-6.67 11.01 -6.34 10.02 -6 9 C-5.34 9 -4.68 9 -4 9 C-3.67 7.02 -3.34 5.04 -3 3 C-2.34 3 -1.68 3 -1 3 C-0.67 2.01 -0.34 1.02 0 0 Z " fill="#68A1D9" transform="translate(555,455)"/>
<path d="M0 0 C-12.825 7.32058824 -12.825 7.32058824 -21 7 C-17.45941714 4.63961143 -13.90193747 3.30223114 -9.9375 1.8125 C-9.20466797 1.52697266 -8.47183594 1.24144531 -7.71679688 0.94726562 C-2.2396978 -1.1198489 -2.2396978 -1.1198489 0 0 Z " fill="#D0F1FA" transform="translate(685,622)"/>
<path d="M0 0 C-2.95224094 2.46364163 -5.48528999 3.62972345 -9.1875 4.625 C-12.37327617 5.30570702 -12.37327617 5.30570702 -15 7 C-17.67058851 7.14115161 -20.32432238 7.04247107 -23 7 C-18.91166708 4.88615254 -14.70363446 3.35584702 -10.375 1.8125 C-9.59898437 1.52697266 -8.82296875 1.24144531 -8.0234375 0.94726562 C-2.23544358 -1.11772179 -2.23544358 -1.11772179 0 0 Z " fill="#D6F1FD" transform="translate(516,497)"/>
<path d="M0 0 C0.33 0 0.66 0 1 0 C0.88525534 2.54250021 0.7585303 5.08347338 0.625 7.625 C0.5940625 8.33785156 0.563125 9.05070312 0.53125 9.78515625 C0.28979845 14.17152608 -0.39342731 17.8594834 -2 22 C-2.33 22 -2.66 22 -3 22 C-3.39363688 14.25847464 -1.94210433 7.47941368 0 0 Z " fill="#E2FBFE" transform="translate(335,368)"/>
<path d="M0 0 C2.475 0.495 2.475 0.495 5 1 C5.061875 1.61875 5.12375 2.2375 5.1875 2.875 C5.828919 5.27761141 5.828919 5.27761141 8.5625 6.25 C9.366875 6.4975 10.17125 6.745 11 7 C11 7.66 11 8.32 11 9 C11.66 9 12.32 9 13 9 C12.67 10.32 12.34 11.64 12 13 C9.99698146 11.0238076 7.99750133 9.04425526 6 7.0625 C5.42765625 6.49853516 4.8553125 5.93457031 4.265625 5.35351562 C2.82474495 3.92121224 1.41012857 2.46258871 0 1 C0 0.67 0 0.34 0 0 Z " fill="#CEF2FC" transform="translate(539,146)"/>
<path d="M0 0 C0.66 0.33 1.32 0.66 2 1 C-2.32893185 6.18419194 -6.76564995 10.72706118 -12 15 C-12 13.68 -12 12.36 -12 11 C-11.01 11 -10.02 11 -9 11 C-8.67 10.01 -8.34 9.02 -8 8 C-7.34 8 -6.68 8 -6 8 C-5.67 7.01 -5.34 6.02 -5 5 C-3.37347684 3.29413425 -1.70993434 1.6222454 0 0 Z " fill="#609ED6" transform="translate(741,576)"/>
<path d="M0 0 C1.62600941 0.0870005 3.25089678 0.1951781 4.875 0.3125 C5.77992188 0.37050781 6.68484375 0.42851562 7.6171875 0.48828125 C10 1 10 1 12 4 C12 7 12 7 11 9 C9.72689688 8.06558465 8.456612 7.12732889 7.1875 6.1875 C6.47980469 5.66542969 5.77210938 5.14335937 5.04296875 4.60546875 C3.21468607 3.16871123 1.60103312 1.68184237 0 0 Z " fill="#DFF3FC" transform="translate(700,303)"/>
<path d="M0 0 C2.44413389 3.08269139 4.33109524 6.28471111 6.1875 9.75 C6.71730469 10.73484375 7.24710937 11.7196875 7.79296875 12.734375 C8.19128906 13.48203125 8.58960938 14.2296875 9 15 C8.01 15.495 8.01 15.495 7 16 C6.34 15.67 5.68 15.34 5 15 C5 13.68 5 12.36 5 11 C4.34 11 3.68 11 3 11 C2.87625 10.360625 2.7525 9.72125 2.625 9.0625 C2.41875 8.381875 2.2125 7.70125 2 7 C1.34 6.67 0.68 6.34 0 6 C0 4.02 0 2.04 0 0 Z " fill="#D9F2FD" transform="translate(383,449)"/>
<path d="M0 0 C0.66 0.33 1.32 0.66 2 1 C-0.64 6.61 -3.28 12.22 -6 18 C-7.27054209 12.91783164 -6.34726099 10.33244559 -3.75 5.8359375 C-2.52776844 3.8706447 -1.28146244 1.92708474 0 0 Z " fill="#DEF7FD" transform="translate(386,356)"/>
<path d="M0 0 C1.175625 0.5259375 1.175625 0.5259375 2.375 1.0625 C3.674375 1.5265625 3.674375 1.5265625 5 2 C5.66 1.67 6.32 1.34 7 1 C8.25733598 4.77200794 8.03366148 7.25297715 7 11 C4.04250209 7.53258866 1.92151848 4.13126473 0 0 Z " fill="#E7F4F9" transform="translate(751,352)"/>
<path d="M0 0 C0 0.99 0 1.98 0 3 C-0.99 3 -1.98 3 -3 3 C-3.0825 3.763125 -3.165 4.52625 -3.25 5.3125 C-4.14615794 8.52373261 -5.21611025 9.29374499 -8 11 C-7.73799687 5.67260293 -7.73799687 5.67260293 -7 3 C-4.56990326 1.00607447 -3.16090285 0 0 0 Z " fill="#67A7EF" transform="translate(190,237)"/>
<path d="M0 0 C0.66 0.33 1.32 0.66 2 1 C0.80100302 4.0831351 -0.47700477 7.06279492 -2 10 C-0.68 11.65 0.64 13.3 2 15 C-2.875 13.125 -2.875 13.125 -4 12 C-4.61317388 6.72670463 -3.16733542 4.15712774 0 0 Z " fill="#E0F5FD" transform="translate(589,483)"/>
<path d="M0 0 C0.9867097 3.11074833 0.96838493 5.16442757 0.22265625 8.328125 C0.03896484 9.12734375 -0.14472656 9.9265625 -0.33398438 10.75 C-0.63272461 11.9875 -0.63272461 11.9875 -0.9375 13.25 C-1.23043945 14.51070313 -1.23043945 14.51070313 -1.52929688 15.796875 C-2.01142286 17.86648898 -2.50463863 19.93351395 -3 22 C-3.33 22 -3.66 22 -4 22 C-4.35507246 11.84098229 -4.35507246 11.84098229 -2 7 C-1.31320058 4.67251306 -0.64238957 2.34013344 0 0 Z " fill="#D8F5FC" transform="translate(10,408)"/>
<path d="M0 0 C1.32 0.33 2.64 0.66 4 1 C0.04 4.3 -3.92 7.6 -8 11 C-8 8 -8 8 -7 5 C-6.01 5 -5.02 5 -4 5 C-3.67 4.01 -3.34 3.02 -3 2 C-2.01 2 -1.02 2 0 2 C0 1.34 0 0.68 0 0 Z " fill="#D4F4FD" transform="translate(67,320)"/>
<path d="M0 0 C0.99 0.33 1.98 0.66 3 1 C3.33 2.65 3.66 4.3 4 6 C4.66 6 5.32 6 6 6 C9.42857143 14.42857143 9.42857143 14.42857143 9 19 C6.57377534 16.57377534 5.78499587 14.36473063 4.5 11.1875 C4.0771875 10.14980469 3.654375 9.11210937 3.21875 8.04296875 C2.8165625 7.03878906 2.414375 6.03460938 2 5 C1.6184375 4.04738281 1.236875 3.09476563 0.84375 2.11328125 C0.5653125 1.41589844 0.286875 0.71851563 0 0 Z " fill="#DEF8FE" transform="translate(588,211)"/>
<path d="M0 0 C3.17867281 2.70187189 5.4482417 6.14590466 7 10 C6.75 12.9375 6.75 12.9375 6 15 C5.67 15 5.34 15 5 15 C4.67 13.35 4.34 11.7 4 10 C3.34 10 2.68 10 2 10 C0.68373308 6.38026598 0 3.90432869 0 0 Z " fill="#5EA5E2" transform="translate(576,191)"/>
<path d="M0 0 C0.33 0.66 0.66 1.32 1 2 C-0.70847138 6.13629913 -2.67356033 9.01767477 -6 12 C-6.99 11.67 -7.98 11.34 -9 11 C-6.03 7.37 -3.06 3.74 0 0 Z " fill="#DFF6FC" transform="translate(750,568)"/>
<path d="M0 0 C0.66 0 1.32 0 2 0 C2.6496875 1.175625 2.6496875 1.175625 3.3125 2.375 C4.7671365 5.20866085 4.7671365 5.20866085 7.625 6 C8.40875 6.33 9.1925 6.66 10 7 C10.8125 9.625 10.8125 9.625 11 12 C10.01 12 9.02 12 8 12 C5.95703125 9.8828125 5.95703125 9.8828125 3.8125 7.125 C3.09707031 6.22007812 2.38164063 5.31515625 1.64453125 4.3828125 C0 2 0 2 0 0 Z " fill="#63A7DD" transform="translate(38,563)"/>
<path d="M0 0 C0.33 0 0.66 0 1 0 C1.2581571 7.48655603 0.13951085 12.60257414 -4 19 C-5.27182008 16.45635984 -4.82067275 15.75536947 -4.00390625 13.0859375 C-3.66069336 11.94511719 -3.66069336 11.94511719 -3.31054688 10.78125 C-3.06369141 9.9871875 -2.81683594 9.193125 -2.5625 8.375 C-2.31951172 7.57320313 -2.07652344 6.77140625 -1.82617188 5.9453125 C-1.22395927 3.96155332 -0.61281311 1.98051018 0 0 Z " fill="#CDF1FC" transform="translate(779,504)"/>
<path d="M0 0 C0.6875 1.6875 0.6875 1.6875 1 4 C0.05988318 5.70116376 -0.94895617 7.36504293 -2 9 C-2.33 10.03125 -2.66 11.0625 -3 12.125 C-3.97567357 14.93006152 -4.74150198 16.15213798 -7 18 C-6.37834312 14.42387072 -5.42491332 11.23733326 -4.0625 7.875 C-3.72347656 7.02679688 -3.38445313 6.17859375 -3.03515625 5.3046875 C-2 3 -2 3 0 0 Z " fill="#64A1D4" transform="translate(23,379)"/>
<path d="M0 0 C4.66666667 4 9.33333333 8 14 12 C13.01 12.495 13.01 12.495 12 13 C8.12957586 11.66537099 5.77140538 8.91352873 3 6 C2.401875 5.46375 1.80375 4.9275 1.1875 4.375 C0 3 0 3 0 0 Z " fill="#DDF6FE" transform="translate(561,296)"/>
<path d="M0 0 C-2.60526888 2.60526888 -5.17939234 3.34134224 -8.625 4.625 C-9.81351562 5.07101562 -11.00203125 5.51703125 -12.2265625 5.9765625 C-13.14179687 6.31429688 -14.05703125 6.65203125 -15 7 C-15 6.34 -15 5.68 -15 5 C-14.34 5 -13.68 5 -13 5 C-13 4.34 -13 3.68 -13 3 C-8.1942374 -0.17180332 -5.81427302 -1.70173845 0 0 Z " fill="#DEF7FD" transform="translate(112,297)"/>
<path d="M0 0 C-3.50270401 3.50270401 -7.58011525 3.05580639 -12.3125 3.0625 C-13.8750573 3.04653226 -15.43759968 3.02730408 -17 3 C-14.08149788 1.05433192 -12.42377152 0.4847543 -9.0625 -0.1875 C-8.20785156 -0.36667969 -7.35320313 -0.54585937 -6.47265625 -0.73046875 C-3.98865141 -1.00123705 -2.35550498 -0.77059444 0 0 Z " fill="#DBF5FC" transform="translate(664,630)"/>
<path d="M0 0 C2.16730018 3.25095026 2.81305307 5.71215185 3.6875 9.5 C3.95949219 10.6446875 4.23148438 11.789375 4.51171875 12.96875 C5 16 5 16 4 19 C0.90133798 12.37384327 -0.47266289 7.32627475 0 0 Z " fill="#63A0D7" transform="translate(603,253)"/>
<path d="M0 0 C3.52238047 1.56367357 6.27123994 3.69495889 9.25 6.125 C10.14203125 6.84945312 11.0340625 7.57390625 11.953125 8.3203125 C12.62859375 8.87460937 13.3040625 9.42890625 14 10 C13.01 10.495 13.01 10.495 12 11 C9 10 9 10 7 7 C5.989375 6.525625 4.97875 6.05125 3.9375 5.5625 C1 4 1 4 0.125 1.8125 C0.08375 1.214375 0.0425 0.61625 0 0 Z " fill="#68A0D7" transform="translate(376,513)"/>
<path d="M0 0 C0.99 0.33 1.98 0.66 3 1 C-0.3 4.3 -3.6 7.6 -7 11 C-7.33 9.68 -7.66 8.36 -8 7 C-7.236875 6.401875 -6.47375 5.80375 -5.6875 5.1875 C-3.6516425 3.53040668 -1.8021721 1.89702326 0 0 Z " fill="#DEF7FD" transform="translate(55,331)"/>
<path d="M0 0 C0 0.99 0 1.98 0 3 C-3.87417866 6.87417866 -6.38241014 8.59874358 -12 9 C-8.32442148 4.99027798 -4.81033104 2.54664585 0 0 Z " fill="#DBF6FE" transform="translate(398,285)"/>
<path d="M0 0 C0.66 0.33 1.32 0.66 2 1 C-6.07744875 10.96355353 -6.07744875 10.96355353 -12 12 C-8.57833482 7.29521038 -4.42094803 3.72346836 0 0 Z " fill="#669ED4" transform="translate(253,138)"/>
<path d="M0 0 C1.65 0 3.3 0 5 0 C5 1.32 5 2.64 5 4 C6.65 4.33 8.3 4.66 10 5 C10 6.32 10 7.64 10 9 C8.70391053 8.06862408 7.41328368 7.1296434 6.125 6.1875 C5.40570313 5.66542969 4.68640625 5.14335938 3.9453125 4.60546875 C2 3 2 3 0 0 Z " fill="#DEF7FD" transform="translate(372,508)"/>
<path d="M0 0 C-2.40118527 2.40118527 -4.05496042 2.75220861 -7.3125 3.625 C-8.72982422 4.01558594 -8.72982422 4.01558594 -10.17578125 4.4140625 C-12.87851902 4.97479648 -15.25031848 5.1101876 -18 5 C-14.91190305 3.23537317 -13.76687864 3 -10 3 C-10 2.34 -10 1.68 -10 1 C-6.78548731 -0.60725635 -3.56387464 -0.05748185 0 0 Z " fill="#609DDD" transform="translate(506,499)"/>
<path d="M0 0 C2.97 0.495 2.97 0.495 6 1 C2.56638098 4.63559661 -0.7973607 7.36113346 -5 10 C-5.66 9.67 -6.32 9.34 -7 9 C-3.25 6 -3.25 6 -1 6 C-1 5.34 -1 4.68 -1 4 C-0.34 4 0.32 4 1 4 C0.67 2.68 0.34 1.36 0 0 Z " fill="#66A3DC" transform="translate(528,482)"/>
<path d="M0 0 C0.33 0 0.66 0 1 0 C1 2.31 1 4.62 1 7 C0.34 7 -0.32 7 -1 7 C-1.33 7.66 -1.66 8.32 -2 9 C-2.98731742 10.34275169 -3.98594743 11.67732273 -5 13 C-5.66 12.67 -6.32 12.34 -7 12 C-5.85865673 9.99743426 -4.71181367 7.99800203 -3.5625 6 C-2.92441406 4.88625 -2.28632812 3.7725 -1.62890625 2.625 C-1.09136719 1.75875 -0.55382812 0.8925 0 0 Z " fill="#65A1D3" transform="translate(596,476)"/>
<path d="M0 0 C4.21814817 3.9700218 7.61227103 8.30840284 11 13 C10.67 13.66 10.34 14.32 10 15 C9.01 14.34 8.02 13.68 7 13 C7 12.01 7 11.02 7 10 C6.34 10 5.68 10 5 10 C1.125 3.375 1.125 3.375 0 0 Z " fill="#65A4DC" transform="translate(742,342)"/>
<path d="M0 0 C1.91965309 0.59460953 3.83563079 1.20109261 5.75 1.8125 C7.35101562 2.31716797 7.35101562 2.31716797 8.984375 2.83203125 C11.79040787 3.91882377 13.71986376 5.06852537 16 7 C11.13103697 6.40380045 6.67209049 5.43023178 2 4 C2 3.34 2 2.68 2 2 C1.34 2 0.68 2 0 2 C0 1.34 0 0.68 0 0 Z " fill="#DCF5FE" transform="translate(520,273)"/>
<path d="M0 0 C2.31 0.33 4.62 0.66 7 1 C7.33 1.99 7.66 2.98 8 4 C9.65 4.33 11.3 4.66 13 5 C12.34 6.32 11.68 7.64 11 9 C9.16384919 7.69144447 7.33114211 6.37805538 5.5 5.0625 C4.4790625 4.33160156 3.458125 3.60070312 2.40625 2.84765625 C1.6121875 2.23792969 0.818125 1.62820313 0 1 C0 0.67 0 0.34 0 0 Z " fill="#DBF5FB" transform="translate(382,517)"/>
<path d="M0 0 C-0.0625 1.75 -0.0625 1.75 -1 4 C-3.25123006 5.72518887 -5.40134903 6.76906007 -8 8 C-8.66 7.67 -9.32 7.34 -10 7 C-10 6.34 -10 5.68 -10 5 C-8.3203125 3.7109375 -8.3203125 3.7109375 -6.125 2.375 C-5.40570312 1.92898438 -4.68640625 1.48296875 -3.9453125 1.0234375 C-2 0 -2 0 0 0 Z " fill="#E2F5FD" transform="translate(528,489)"/>
<path d="M0 0 C3 3 3 3 3.328125 5.3046875 C3.30234375 6.15289062 3.2765625 7.00109375 3.25 7.875 C3.22421875 8.75671875 3.1984375 9.6384375 3.171875 10.546875 C2.99296044 13.10047366 2.66023467 15.52411999 2 18 C1.67 18 1.34 18 1 18 C0.67 12.06 0.34 6.12 0 0 Z " fill="#66AEED" transform="translate(5,436)"/>
<path d="M0 0 C3.82110489 1.91055244 4.95399164 2.49255709 7 6 C7.6875 9.25 7.6875 9.25 8 12 C7.34 12 6.68 12 6 12 C4.02 8.04 2.04 4.08 0 0 Z " fill="#D9F3FE" transform="translate(581,198)"/>
<path d="M0 0 C5.94 3.465 5.94 3.465 12 7 C11.34 7.66 10.68 8.32 10 9 C7.875 8.625 7.875 8.625 6 8 C6 7.01 6 6.02 6 5 C4.68 5 3.36 5 2 5 C1.34 3.35 0.68 1.7 0 0 Z " fill="#DFF7FE" transform="translate(77,603)"/>
<path d="M0 0 C-2.36543716 2.36543716 -4.57067205 3.27541323 -7.625 4.625 C-8.62789063 5.07101562 -9.63078125 5.51703125 -10.6640625 5.9765625 C-11.43492187 6.31429688 -12.20578125 6.65203125 -13 7 C-13 6.01 -13 5.02 -13 4 C-11.40233897 3.13372601 -9.79660056 2.28233535 -8.1875 1.4375 C-7.29417969 0.96183594 -6.40085937 0.48617188 -5.48046875 -0.00390625 C-3 -1 -3 -1 0 0 Z " fill="#DAF6FD" transform="translate(434,316)"/>
<path d="M0 0 C-0.96441531 2.41103827 -1.68797047 3.77404758 -3.8125 5.3125 C-6.54191176 6.17031512 -8.27678692 5.75644808 -11 5 C-3.5 0 -3.5 0 0 0 Z " fill="#DCF7FB" transform="translate(696,616)"/>
<path d="M0 0 C1.12894876 0.93274109 2.25300876 1.87140122 3.375 2.8125 C4.00148438 3.33457031 4.62796875 3.85664062 5.2734375 4.39453125 C7 6 7 6 9 9 C6.75 9.375 6.75 9.375 4 9 C1.42485131 5.8680624 0 4.10589421 0 0 Z " fill="#5FA4E5" transform="translate(592,567)"/>
<path d="M0 0 C5.2295082 3.78688525 5.2295082 3.78688525 7 6 C7 7.32 7 8.64 7 10 C7.66 10.33 8.32 10.66 9 11 C8.01 11 7.02 11 6 11 C4.39453125 9.1015625 4.39453125 9.1015625 2.8125 6.625 C2.01779297 5.40683594 2.01779297 5.40683594 1.20703125 4.1640625 C0 2 0 2 0 0 Z " fill="#67A1D8" transform="translate(30,551)"/>
<path d="M0 0 C3.15233758 1.57616879 3.81999752 4.35760538 5.1796875 7.5 C6.3818177 11.1636349 6.27834468 14.17276062 6 18 C4.36798362 14.89034717 3.08562641 11.73309413 1.875 8.4375 C1.34519531 7.01244141 1.34519531 7.01244141 0.8046875 5.55859375 C0 3 0 3 0 0 Z " fill="#D7F7FD" transform="translate(562,368)"/>
<path d="M0 0 C0.99 0.33 1.98 0.66 3 1 C0.36 4.3 -2.28 7.6 -5 11 C-5.66 10.01 -6.32 9.02 -7 8 C-6.34 8 -5.68 8 -5 8 C-4.34 6.35 -3.68 4.7 -3 3 C-2.34 3 -1.68 3 -1 3 C-0.67 2.01 -0.34 1.02 0 0 Z " fill="#DDF8FE" transform="translate(397,340)"/>
<path d="M0 0 C3.21524305 1.40844718 5.32183868 3.10344786 7.75 5.625 C8.67039062 6.57246094 8.67039062 6.57246094 9.609375 7.5390625 C10.29773438 8.26222656 10.29773438 8.26222656 11 9 C10.34 9.66 9.68 10.32 9 11 C8.51789062 10.43410156 8.03578125 9.86820312 7.5390625 9.28515625 C6.90742187 8.55167969 6.27578125 7.81820313 5.625 7.0625 C4.99851562 6.33160156 4.37203125 5.60070312 3.7265625 4.84765625 C2.12252286 2.91619094 2.12252286 2.91619094 0 2 C0 1.34 0 0.68 0 0 Z " fill="#61A1DD" transform="translate(717,317)"/>
<path d="M0 0 C0.99 0.33 1.98 0.66 3 1 C-3.93 3.97 -3.93 3.97 -11 7 C-11.33 5.68 -11.66 4.36 -12 3 C-11.30132812 2.86722656 -10.60265625 2.73445313 -9.8828125 2.59765625 C-8.51769531 2.33275391 -8.51769531 2.33275391 -7.125 2.0625 C-6.22007812 1.88847656 -5.31515625 1.71445312 -4.3828125 1.53515625 C-2.00043683 1.10036299 -2.00043683 1.10036299 0 0 Z " fill="#60A1DA" transform="translate(421,272)"/>
<path d="M0 0 C-5.36190101 2.61407872 -10.03435204 4.49228528 -16 5 C-11.53321948 1.09156705 -5.86504904 -1.93756084 0 0 Z " fill="#68A1D6" transform="translate(320,103)"/>
<path d="M0 0 C11.26482946 0.8311913 11.26482946 0.8311913 15 3 C15.33 3.99 15.66 4.98 16 6 C10.63904723 4.41078475 5.29156027 2.81027062 0 1 C0 0.67 0 0.34 0 0 Z " fill="#D3F0FC" transform="translate(459,100)"/>
<path d="M0 0 C1.98 0.66 3.96 1.32 6 2 C6 2.99 6 3.98 6 5 C6.99 4.67 7.98 4.34 9 4 C9.66 4.33 10.32 4.66 11 5 C10.67 5.99 10.34 6.98 10 8 C6.40094092 7.44449305 5.00090201 6.25112752 2.75 3.4375 C2.22921875 2.79683594 1.7084375 2.15617188 1.171875 1.49609375 C0.78515625 1.00238281 0.3984375 0.50867188 0 0 Z " fill="#64A4DF" transform="translate(661,567)"/>
<path d="M0 0 C1.13917898 3.98712644 1.03430564 6.9366564 0 11 C-2.5625 12.9375 -2.5625 12.9375 -5 14 C-3.46527032 9.27775484 -1.76054874 4.64144669 0 0 Z " fill="#D8F3FC" transform="translate(773,524)"/>
<path d="M0 0 C5.35048061 0.37328935 7.50912907 1.9957657 11 6 C10.67 6.66 10.34 7.32 10 8 C9.13375 7.175 8.2675 6.35 7.375 5.5 C4.82109359 3.34134101 4.13360249 3.0123706 0.625 2.6875 C-0.24125 2.790625 -1.1075 2.89375 -2 3 C-1.34 2.01 -0.68 1.02 0 0 Z " fill="#6AA2D6" transform="translate(549,527)"/>
<path d="M0 0 C0 0.66 0 1.32 0 2 C0.66 2 1.32 2 2 2 C1.67 2.99 1.34 3.98 1 5 C-0.1446875 5.2165625 -0.1446875 5.2165625 -1.3125 5.4375 C-4.08172908 5.9632594 -4.08172908 5.9632594 -7 7 C-7 6.34 -7 5.68 -7 5 C-6.34 5 -5.68 5 -5 5 C-5 4.01 -5 3.02 -5 2 C-2 0 -2 0 0 0 Z " fill="#DDEFF7" transform="translate(552,523)"/>
<path d="M0 0 C1.98 0.99 1.98 0.99 4 2 C4 2.66 4 3.32 4 4 C4.66 4 5.32 4 6 4 C7.49524178 6.2727675 8.78399715 8.5679943 10 11 C9.34 11.66 8.68 12.32 8 13 C6.66388095 11.0226631 5.33100742 9.04327287 4 7.0625 C3.6184375 6.49853516 3.236875 5.93457031 2.84375 5.35351562 C0 1.11328125 0 1.11328125 0 0 Z " fill="#D7F1FC" transform="translate(568,178)"/>
<path d="M0 0 C0.99 0.99 1.98 1.98 3 3 C1.38007835 3.86375896 -0.24611861 4.71575854 -1.875 5.5625 C-3.23238281 6.27599609 -3.23238281 6.27599609 -4.6171875 7.00390625 C-5.40351563 7.33261719 -6.18984375 7.66132813 -7 8 C-7.66 7.67 -8.32 7.34 -9 7 C-6.03 4.69 -3.06 2.38 0 0 Z " fill="#62A2D9" transform="translate(264,130)"/>
<path d="M0 0 C0.90105469 0.11085938 1.80210937 0.22171875 2.73046875 0.3359375 C3.76107422 0.47902344 3.76107422 0.47902344 4.8125 0.625 C1.65009418 2.73327055 0.30592531 2.96317465 -3.375 3.25 C-4.72658203 3.36214844 -4.72658203 3.36214844 -6.10546875 3.4765625 C-7.13607422 3.55003906 -7.13607422 3.55003906 -8.1875 3.625 C-8.1875 2.965 -8.1875 2.305 -8.1875 1.625 C-4.73535147 -0.67643236 -3.95270676 -0.51333854 0 0 Z " fill="#63A5DC" transform="translate(645.1875,630.375)"/>
<path d="M0 0 C2.3125 0.1875 2.3125 0.1875 5 1 C6.6875 3.4375 6.6875 3.4375 8 6 C8.66 6.66 9.32 7.32 10 8 C7 8 7 8 5.17578125 6.50390625 C4.56089844 5.86324219 3.94601562 5.22257813 3.3125 4.5625 C2.68988281 3.92441406 2.06726563 3.28632812 1.42578125 2.62890625 C0 1 0 1 0 0 Z " fill="#DCF5FE" transform="translate(614,588)"/>
<path d="M0 0 C2.29903669 4.10542266 4.35523153 8.69099505 3.625 13.4375 C3.41875 13.953125 3.2125 14.46875 3 15 C0.31780178 9.63560356 -0.3152595 5.98993047 0 0 Z " fill="#D3F2FC" transform="translate(9,502)"/>
<path d="M0 0 C1.6077072 4.01926801 0.34539351 7.03462964 -1 11 C-1.62469505 12.35350594 -2.2716331 13.69934483 -3 15 C-3.66 15 -4.32 15 -5 15 C-3.33333333 10 -1.66666667 5 0 0 Z " fill="#D2EEFC" transform="translate(564,438)"/>
<path d="M0 0 C0.99 0.33 1.98 0.66 3 1 C0.03 3.97 -2.94 6.94 -6 10 C-6.33 9.01 -6.66 8.02 -7 7 C-6.34 7 -5.68 7 -5 7 C-4.67 5.68 -4.34 4.36 -4 3 C-3.01 3 -2.02 3 -1 3 C-0.67 2.01 -0.34 1.02 0 0 Z " fill="#DCF9FE" transform="translate(407,330)"/>
<path d="M0 0 C2.39453125 0.296875 2.39453125 0.296875 5 1 C6.6875 4.25 6.6875 4.25 8 8 C8.391875 8.969375 8.78375 9.93875 9.1875 10.9375 C9.455625 11.618125 9.72375 12.29875 10 13 C5.79759989 9.28249221 3.00217321 4.68339021 0 0 Z " fill="#619ED4" transform="translate(580,314)"/>
<path d="M0 0 C0.66 0.66 1.32 1.32 2 2 C1.09507813 2.09087891 1.09507813 2.09087891 0.171875 2.18359375 C-1.02695313 2.30927734 -1.02695313 2.30927734 -2.25 2.4375 C-3.03890625 2.51871094 -3.8278125 2.59992188 -4.640625 2.68359375 C-6.82364639 2.97634993 -8.8773182 3.42064419 -11 4 C-7.84441727 0.34616736 -4.73375145 -1.57791715 0 0 Z " fill="#63A4DA" transform="translate(110,300)"/>
<path d="M0 0 C1.9375 0.6875 1.9375 0.6875 2.9375 2.6875 C-3.34821429 5.11607143 -3.34821429 5.11607143 -7.0625 3.6875 C-6.4025 3.6875 -5.7425 3.6875 -5.0625 3.6875 C-4.7325 2.6975 -4.4025 1.7075 -4.0625 0.6875 C-2.0625 -0.3125 -2.0625 -0.3125 0 0 Z " fill="#60A2DE" transform="translate(431.0625,267.3125)"/>
<path d="M0 0 C0.66 0 1.32 0 2 0 C0.44298069 4.67105792 -2.08447373 8.08705685 -5 12 C-5.33 11.01 -5.66 10.02 -6 9 C-4.85546875 6.73828125 -4.85546875 6.73828125 -3.1875 4.3125 C-2.64480469 3.50425781 -2.10210937 2.69601563 -1.54296875 1.86328125 C-1.03378906 1.24839844 -0.52460938 0.63351563 0 0 Z " fill="#DAF3FE" transform="translate(213,178)"/>
<path d="M0 0 C1.43861294 0.08746284 2.87597508 0.19565348 4.3125 0.3125 C5.11300781 0.37050781 5.91351563 0.42851563 6.73828125 0.48828125 C9.36272334 1.08206694 10.30820672 1.95780294 12 4 C11.67 4.66 11.34 5.32 11 6 C7.37 4.35 3.74 2.7 0 1 C0 0.67 0 0.34 0 0 Z " fill="#DBF3FD" transform="translate(476,106)"/>
<path d="M0 0 C6.15234375 -0.09765625 6.15234375 -0.09765625 8 0 C8.33 0.33 8.66 0.66 9 1 C11.32817964 1.36760731 13.6618385 1.70241581 16 2 C16 2.33 16 2.66 16 3 C10.26157749 3.20413361 5.39460953 3.27141454 0 1 C0 0.67 0 0.34 0 0 Z " fill="#D6F5FE" transform="translate(644,616)"/>
<path d="M0 0 C2.97 0.495 2.97 0.495 6 1 C6 1.66 6 2.32 6 3 C6.66 3.33 7.32 3.66 8 4 C7.67 5.32 7.34 6.64 7 8 C5.83035398 6.8572081 4.66435444 5.71068285 3.5 4.5625 C2.8503125 3.92441406 2.200625 3.28632812 1.53125 2.62890625 C0 1 0 1 0 0 Z " fill="#DEF6FE" transform="translate(630,604)"/>
<path d="M0 0 C2.74792483 3.40219265 6 7.48464588 6 12 C5.01 12 4.02 12 3 12 C2.690625 11.030625 2.38125 10.06125 2.0625 9.0625 C1.30476658 6.15934208 1.30476658 6.15934208 0 5 C-0.04063832 3.33382885 -0.042721 1.66611905 0 0 Z " fill="#D2F4FC" transform="translate(595,337)"/>
<path d="M0 0 C0.33 0 0.66 0 1 0 C1.3125 2.25 1.3125 2.25 1 5 C-1.5 7.3125 -1.5 7.3125 -4 9 C-4.33 8.34 -4.66 7.68 -5 7 C-1.125 1.125 -1.125 1.125 0 0 Z " fill="#DBF5FC" transform="translate(355,326)"/>
<path d="M0 0 C0.66 0 1.32 0 2 0 C3.39138161 1.74814612 4.56294846 3.59672568 5.78125 5.46875 C6.1834375 5.9740625 6.585625 6.479375 7 7 C7.66 7 8.32 7 9 7 C8.67 7.99 8.34 8.98 8 10 C6.87105124 9.06725891 5.74699124 8.12859878 4.625 7.1875 C3.99851562 6.66542969 3.37203125 6.14335938 2.7265625 5.60546875 C1 4 1 4 -1 1 C-0.67 0.67 -0.34 0.34 0 0 Z " fill="#60A0DA" transform="translate(642,546)"/>
<path d="M0 0 C2.64465038 3.1254959 3.84414715 6.08788267 5 10 C3.0625 9.625 3.0625 9.625 1 9 C-0.4783226 6.04335481 -0.06032783 3.25770263 0 0 Z " fill="#D5EEFB" transform="translate(20,534)"/>
<path d="M0 0 C2.17944188 3.26916282 2.23305854 3.86280386 1.8125 7.5625 C1.73644531 8.34753906 1.66039062 9.13257813 1.58203125 9.94140625 C1 12 1 12 -2 14 C-1.43393721 9.30976546 -0.81462495 4.65499974 0 0 Z " fill="#D9F8FD" transform="translate(782,490)"/>
<path d="M0 0 C3.93673644 1.31224548 6.22719294 2.91910327 9 6 C8.67 6.99 8.34 7.98 8 9 C6.66368764 7.6905332 5.33102075 6.37734515 4 5.0625 C3.2575 4.33160156 2.515 3.60070312 1.75 2.84765625 C0 1 0 1 0 0 Z " fill="#61A2DA" transform="translate(398,471)"/>
<path d="M0 0 C2.97 0.495 2.97 0.495 6 1 C5.67 3.31 5.34 5.62 5 8 C2.27573689 5.64722731 1.1858237 3.37503669 0 0 Z " fill="#65A8E3" transform="translate(590,327)"/>
<path d="M0 0 C0.80824219 0.10183594 1.61648438 0.20367187 2.44921875 0.30859375 C3.06410156 0.39238281 3.67898438 0.47617188 4.3125 0.5625 C4.3125 0.8925 4.3125 1.2225 4.3125 1.5625 C0.0225 2.2225 -4.2675 2.8825 -8.6875 3.5625 C-8.3575 2.5725 -8.0275 1.5825 -7.6875 0.5625 C-4.59271121 -0.46909626 -3.16118607 -0.41232862 0 0 Z " fill="#D7F7FE" transform="translate(349.6875,91.4375)"/>
<path d="M0 0 C4.20390632 1.50139512 5.89110738 4.17275043 8 8 C7.67 8.99 7.34 9.98 7 11 C3.85014682 7.43569245 1.4859916 4.59306496 0 0 Z " fill="#E7F9FE" transform="translate(362,495)"/>
<path d="M0 0 C2.91488977 2.6234008 4.88503898 5.71816394 7 9 C6.67 9.66 6.34 10.32 6 11 C4.68 10.34 3.36 9.68 2 9 C2 7.35 2 5.7 2 4 C1.34 4 0.68 4 0 4 C0 2.68 0 1.36 0 0 Z " fill="#619FD4" transform="translate(348,478)"/>
<path d="M0 0 C0.66 0 1.32 0 2 0 C2 0.99 2 1.98 2 3 C1.34 3 0.68 3 0 3 C-0.99 5.97 -1.98 8.94 -3 12 C-3.66 12 -4.32 12 -5 12 C-3.68938409 7.76570244 -2.05643741 3.92592596 0 0 Z " fill="#61A0DE" transform="translate(602,464)"/>
<path d="M0 0 C2 2 2 2 2.5 4.0625 C2.665 4.701875 2.83 5.34125 3 6 C3.66 6.33 4.32 6.66 5 7 C5 9.31 5 11.62 5 14 C2.81385576 11.81385576 2.31743465 10.46120051 1.375 7.5625 C1.11460937 6.78003906 0.85421875 5.99757813 0.5859375 5.19140625 C0 3 0 3 0 0 Z " fill="#65A0D6" transform="translate(378,433)"/>
<path d="M0 0 C1.90318884 2.85478326 2.4619099 4.41941308 3.125 7.6875 C3.29257812 8.49574219 3.46015625 9.30398438 3.6328125 10.13671875 C3.75398437 10.75160156 3.87515625 11.36648438 4 12 C2 11.0625 2 11.0625 0 9 C-0.36475845 5.97465051 -0.22893297 3.03336186 0 0 Z " fill="#D5F3FD" transform="translate(604,356)"/>
<path d="M0 0 C0.66 0.66 1.32 1.32 2 2 C-0.83430453 5.2542015 -2.68607774 6.5206753 -7 7 C-2.25 1.125 -2.25 1.125 0 0 Z " fill="#60A5D9" transform="translate(70,321)"/>
<path d="M0 0 C1.66666667 1.66666667 3.33333333 3.33333333 5 5 C5.8971875 5.8353125 5.8971875 5.8353125 6.8125 6.6875 C8 8 8 8 8 10 C4.72847271 9.02738378 3.25454871 8.34232413 1.1875 5.5625 C0 3 0 3 0 0 Z " fill="#D5F5FD" transform="translate(575,309)"/>
<path d="M0 0 C0 0.66 0 1.32 0 2 C-1.2065625 2.4021875 -1.2065625 2.4021875 -2.4375 2.8125 C-3.283125 3.204375 -4.12875 3.59625 -5 4 C-5.33 4.99 -5.66 5.98 -6 7 C-8.5625 8.1875 -8.5625 8.1875 -11 9 C-11 8.34 -11 7.68 -11 7 C-10.34 7 -9.68 7 -9 7 C-8.773125 6.401875 -8.54625 5.80375 -8.3125 5.1875 C-6.43375091 2.05625152 -3.74574487 0 0 0 Z " fill="#E6FBFA" transform="translate(299,106)"/>
<path d="M0 0 C3.46941546 0.45822468 6.67395049 0.89131683 10 2 C10 2.66 10 3.32 10 4 C5.74357648 4.3648363 3.46444495 3.47460354 0 1 C0 0.67 0 0.34 0 0 Z " fill="#EBFCFE" transform="translate(113,624)"/>
<path d="M0 0 C-1.35021826 4.41889613 -3.26115668 6.34345343 -7 9 C-6.53149863 4.78348764 -4.94559315 0 0 0 Z " fill="#DDF6FD" transform="translate(677,604)"/>
<path d="M0 0 C1.31611677 0.95336021 2.62778961 1.91285774 3.9375 2.875 C4.66839844 3.40867187 5.39929688 3.94234375 6.15234375 4.4921875 C8 6 8 6 9 8 C5.41209425 7.70100785 4.21833224 7.23013399 1.6875 4.5625 C0 2 0 2 0 0 Z " fill="#DEF7FD" transform="translate(406,480)"/>
<path d="M0 0 C0.33 0 0.66 0 1 0 C1 1.98 1 3.96 1 6 C0.360625 6.268125 -0.27875 6.53625 -0.9375 6.8125 C-3.33131686 7.88667752 -3.33131686 7.88667752 -4 11 C-4.33 10.34 -4.66 9.68 -5 9 C-4.00390625 6.8359375 -4.00390625 6.8359375 -2.5625 4.375 C-2.08941406 3.55773437 -1.61632812 2.74046875 -1.12890625 1.8984375 C-0.75636719 1.27195312 -0.38382813 0.64546875 0 0 Z " fill="#DBF6FC" transform="translate(558,453)"/>
<path d="M0 0 C4.75 0.75 4.75 0.75 7 3 C7.66 3.33 8.32 3.66 9 4 C8.01 4.99 7.02 5.98 6 7 C4.02 4.69 2.04 2.38 0 0 Z " fill="#CCEBFA" transform="translate(728,326)"/>
<path d="M0 0 C4.12751449 0.60698743 7.3321148 2.03810791 11 4 C11 4.33 11 4.66 11 5 C9.35 5 7.7 5 6 5 C6 4.34 6 3.68 6 3 C4.35 3 2.7 3 1 3 C0.67 2.01 0.34 1.02 0 0 Z " fill="#5FA0DE" transform="translate(672,289)"/>
<path d="M0 0 C-2.36689329 2.19219402 -3.51727269 2.9871902 -6.796875 3.07421875 C-7.77140625 2.94660156 -8.7459375 2.81898438 -9.75 2.6875 C-10.73484375 2.56761719 -11.7196875 2.44773437 -12.734375 2.32421875 C-13.48203125 2.21722656 -14.2296875 2.11023438 -15 2 C-15 1.67 -15 1.34 -15 1 C-9.92928099 0.28832014 -5.11791642 -0.10662326 0 0 Z " fill="#DFFBFE" transform="translate(647,633)"/>
<path d="M0 0 C3.63559661 3.43361902 6.36113346 6.7973607 9 11 C4.55092795 9.51697598 2.25420608 5.91714499 0 2 C0 1.34 0 0.68 0 0 Z " fill="#D6F5FF" transform="translate(38,565)"/>
<path d="M0 0 C3.7952131 1.49097658 5.61042731 3.75700849 8 7 C7.01 7.33 6.02 7.66 5 8 C4.87625 7.071875 4.87625 7.071875 4.75 6.125 C4.18741541 3.81562433 4.18741541 3.81562433 1.9375 2.75 C1.298125 2.5025 0.65875 2.255 0 2 C0 1.34 0 0.68 0 0 Z " fill="#69A9DC" transform="translate(577,552)"/>
<path d="M0 0 C3.5786304 1.65167557 6.74820188 3.78286492 10 6 C9.01 6.66 8.02 7.32 7 8 C5.83035398 6.8572081 4.66435444 5.71068285 3.5 4.5625 C2.8503125 3.92441406 2.200625 3.28632812 1.53125 2.62890625 C0 1 0 1 0 0 Z " fill="#63A3DC" transform="translate(629,535)"/>
<path d="M0 0 C1.65 0.33 3.3 0.66 5 1 C5 2.32 5 3.64 5 5 C2.03 4.505 2.03 4.505 -1 4 C-0.67 2.68 -0.34 1.36 0 0 Z " fill="#F0F5FB" transform="translate(406,529)"/>
<path d="M0 0 C0.66 0.33 1.32 0.66 2 1 C-0.97 5.95 -0.97 5.95 -4 11 C-5 8 -5 8 -3.6875 4.9375 C-2 2 -2 2 0 0 Z " fill="#D7F5FB" transform="translate(202,196)"/>
<path d="M0 0 C2.375 0.25 2.375 0.25 5 1 C6.375 2.875 6.375 2.875 7 5 C6.67 5.99 6.34 6.98 6 8 C5.67 7.01 5.34 6.02 5 5 C4.01 4.67 3.02 4.34 2 4 C0.8125 1.9375 0.8125 1.9375 0 0 Z " fill="#D8F4FD" transform="translate(582,555)"/>
<path d="M0 0 C1.25955231 3.77865693 0.48087189 5.03411786 -0.9375 8.6875 C-1.31777344 9.68136719 -1.69804688 10.67523437 -2.08984375 11.69921875 C-2.39019531 12.45847656 -2.69054687 13.21773437 -3 14 C-4.45002516 9.22828601 -2.96642601 6.04023269 -0.875 1.625 C-0.58625 1.08875 -0.2975 0.5525 0 0 Z " fill="#ECFCFE" transform="translate(777,518)"/>
<path d="M0 0 C0.66 0 1.32 0 2 0 C0.515 6.435 0.515 6.435 -1 13 C-1.33 13 -1.66 13 -2 13 C-1.85966889 11.02043559 -1.7125877 9.04134859 -1.5625 7.0625 C-1.48128906 5.96035156 -1.40007812 4.85820312 -1.31640625 3.72265625 C-1 1 -1 1 0 0 Z " fill="#CEF0FD" transform="translate(377,376)"/>
<path d="M0 0 C3.81300782 3.2870757 5.22972246 6.39727838 7 11 C6.01 11.495 6.01 11.495 5 12 C4.731875 11.278125 4.46375 10.55625 4.1875 9.8125 C3.05967316 6.95320276 3.05967316 6.95320276 1.375 4.3125 C0 2 0 2 0 0 Z " fill="#6AA2CF" transform="translate(552,352)"/>
<path d="M0 0 C2.12508244 3.18762365 2.5020163 5.26512223 3 9 C-1.875 4.25 -1.875 4.25 -3 2 C-2.01 2 -1.02 2 0 2 C0 1.34 0 0.68 0 0 Z " fill="#E4F5FB" transform="translate(741,334)"/>
<path d="M0 0 C1.32 0.66 2.64 1.32 4 2 C4 2.99 4 3.98 4 5 C2.68 5.33 1.36 5.66 0 6 C-0.99 4.68 -1.98 3.36 -3 2 C-2.01 2 -1.02 2 0 2 C0 1.34 0 0.68 0 0 Z " fill="#DFF0FB" transform="translate(727,320)"/>
<path d="M0 0 C-1.44253657 3.36591866 -3.33264727 5.51047079 -6 8 C-5.62403791 5.21788056 -5.32681541 3.4120716 -3.5625 1.1875 C-2 0 -2 0 0 0 Z " fill="#67A2DE" transform="translate(365,312)"/>
<path d="M0 0 C3.57804656 -0.19878036 5.99208089 -0.04108797 9 2 C9.33 2.99 9.66 3.98 10 5 C6.08788267 3.84414715 3.1254959 2.64465038 0 0 Z " fill="#D7EEFC" transform="translate(673,288)"/>
<path d="M0 0 C1.32 0.66 2.64 1.32 4 2 C3.34 2.66 2.68 3.32 2 4 C2.33 4.66 2.66 5.32 3 6 C-0.65316671 4.75023244 -1.78065836 4.32901247 -4 1 C-2.68 1.33 -1.36 1.66 0 2 C0 1.34 0 0.68 0 0 Z " fill="#60A2DD" transform="translate(557,288)"/>
<path d="M0 0 C1.32 0.33 2.64 0.66 4 1 C1.69 3.31 -0.62 5.62 -3 8 C-3.33 7.01 -3.66 6.02 -4 5 C-3.525625 4.54625 -3.05125 4.0925 -2.5625 3.625 C-0.90972192 2.06741796 -0.90972192 2.06741796 0 0 Z " fill="#DCF6FD" transform="translate(235,151)"/>
<path d="M0 0 C7.75 0.875 7.75 0.875 10 2 C10 2.66 10 3.32 10 4 C7.36 3.67 4.72 3.34 2 3 C2 2.34 2 1.68 2 1 C1.34 0.67 0.68 0.34 0 0 Z " fill="#5FA3DF" transform="translate(126,625)"/>
<path d="M0 0 C1.65 0 3.3 0 5 0 C5.66 2.31 6.32 4.62 7 7 C5.83040013 6.02433888 4.66438823 5.044375 3.5 4.0625 C2.8503125 3.51722656 2.200625 2.97195313 1.53125 2.41015625 C1.0259375 1.94480469 0.520625 1.47945312 0 1 C0 0.67 0 0.34 0 0 Z " fill="#DAF4FF" transform="translate(623,597)"/>
<path d="M0 0 C2.31 1.98 4.62 3.96 7 6 C6.34 6.66 5.68 7.32 5 8 C5 7.34 5 6.68 5 6 C3.68 5.67 2.36 5.34 1 5 C0.67 3.35 0.34 1.7 0 0 Z " fill="#DBF1FD" transform="translate(657,564)"/>
<path d="M0 0 C3.66881155 0.70554068 6.70450534 2.27735506 10 4 C10 4.66 10 5.32 10 6 C6.40992874 4.66654496 3.20429093 3.1056769 0 1 C0 0.67 0 0.34 0 0 Z " fill="#DBF4FE" transform="translate(395,526)"/>
<path d="M0 0 C4.7517398 0.43197635 6.92000054 1.32769295 10 5 C5.75354935 5 3.61475228 3.18249194 0 1 C0 0.67 0 0.34 0 0 Z " fill="#D3F2FD" transform="translate(687,295)"/>
<path d="M0 0 C6.875 3.625 6.875 3.625 8 7 C7.401875 6.690625 6.80375 6.38125 6.1875 6.0625 C3.91043228 4.89790296 3.91043228 4.89790296 1 4 C0.3125 1.9375 0.3125 1.9375 0 0 Z " fill="#D7F5FC" transform="translate(550,288)"/>
<path d="M0 0 C1.65 0 3.3 0 5 0 C2.47211993 2.79872437 0.79588866 4.45773019 -3 5 C-3 4.34 -3 3.68 -3 3 C-2.34 3 -1.68 3 -1 3 C-0.67 2.01 -0.34 1.02 0 0 Z " fill="#D6EEFC" transform="translate(665,613)"/>
<path d="M0 0 C0.33 1.32 0.66 2.64 1 4 C-0.96466413 5.06775224 -2.96855359 6.06553465 -5 7 C-5.66 6.67 -6.32 6.34 -7 6 C-4.69 4.02 -2.38 2.04 0 0 Z " fill="#DBF6FE" transform="translate(727,593)"/>
<path d="M0 0 C1.66611905 -0.042721 3.33382885 -0.04063832 5 0 C6 1 6 1 6.0625 3.5625 C6.041875 4.366875 6.02125 5.17125 6 6 C3.97945196 4.35830472 1.97956942 2.69088222 0 1 C0 0.67 0 0.34 0 0 Z " fill="#CAE9F9" transform="translate(562,536)"/>
<path d="M0 0 C0.66 1.32 1.32 2.64 2 4 C1.01 5.485 1.01 5.485 0 7 C-0.99 7 -1.98 7 -3 7 C-1.125 2.25 -1.125 2.25 0 0 Z " fill="#5EA3E1" transform="translate(27,371)"/>
<path d="M0 0 C0.99 0.33 1.98 0.66 3 1 C4.125 6.625 4.125 6.625 3 10 C0 3.375 0 3.375 0 0 Z " fill="#5B9BD8" transform="translate(603,351)"/>
<path d="M0 0 C0.66 0 1.32 0 2 0 C0.66666667 3.33333333 -0.66666667 6.66666667 -2 10 C-3.26066301 6.21801096 -2.42292658 4.63636792 -1 1 C-0.67 0.67 -0.34 0.34 0 0 Z " fill="#D5F3FB" transform="translate(195,208)"/>
<path d="M0 0 C6.75 0.75 6.75 0.75 9 3 C8.67 3.66 8.34 4.32 8 5 C7.34 5 6.68 5 6 5 C6 4.34 6 3.68 6 3 C4.02 2.34 2.04 1.68 0 1 C0 0.67 0 0.34 0 0 Z " fill="#5FA9E6" transform="translate(103,616)"/>
<path d="M0 0 C-5.17578125 3.22265625 -5.17578125 3.22265625 -7 4 C-7.99 3.67 -8.98 3.34 -10 3 C-3.94594595 -1.97297297 -3.94594595 -1.97297297 0 0 Z " fill="#60A3D3" transform="translate(699,614)"/>
<path d="M0 0 C2.64 1.98 5.28 3.96 8 6 C7.01 6.495 7.01 6.495 6 7 C3 5.1875 3 5.1875 0 3 C0 2.01 0 1.02 0 0 Z " fill="#DCF9FC" transform="translate(64,593)"/>
<path d="M0 0 C0 3.10551666 -0.5393715 4.35261084 -2 7 C-3.32 6.67 -4.64 6.34 -6 6 C-4.02 4.02 -2.04 2.04 0 0 Z " fill="#CEF2FF" transform="translate(735,585)"/>
<path d="M0 0 C0.33 0 0.66 0 1 0 C3.42857143 7.42857143 3.42857143 7.42857143 2 11 C-0.67927341 6.98108988 -0.15601248 4.75838077 0 0 Z " fill="#CFF3FC" transform="translate(376,429)"/>
<path d="M0 0 C0.66 0 1.32 0 2 0 C4.09230769 4.43076923 4.09230769 4.43076923 3.625 7.3125 C3.41875 7.869375 3.2125 8.42625 3 9 C0 3.375 0 3.375 0 0 Z " fill="#DDF7FC" transform="translate(558,359)"/>
<path d="M0 0 C1.10191901 4.40767604 0.58706842 5.8922935 -1 10 C-1.66 10 -2.32 10 -3 10 C-2.01 6.7 -1.02 3.4 0 0 Z " fill="#CAECF9" transform="translate(340,352)"/>
<path d="M0 0 C-2.64 1.65 -5.28 3.3 -8 5 C-8 4.01 -8 3.02 -8 2 C-3.71900826 -1.23966942 -3.71900826 -1.23966942 0 0 Z " fill="#D2F3FB" transform="translate(82,313)"/>
<path d="M0 0 C2.97 0 5.94 0 9 0 C6.08235 1.9451 4.37462715 2.45276317 1 3 C0.67 2.01 0.34 1.02 0 0 Z " fill="#E2FAFE" transform="translate(439,311)"/>
</svg>
